<?xml version="1.0" standalone="no"?>
<!DOCTYPE svg PUBLIC "-//W3C//DTD SVG 1.1//EN" "http://www.w3.org/Graphics/SVG/1.1/DTD/svg11.dtd" >
<svg xmlns="http://www.w3.org/2000/svg">
<defs>
<font id="JungleFever" horiz-adv-x="846" >
<font-face  font-family="JungleFever" font-weight="400" font-stretch="normal" units-per-em="1000" panose-1="0 0 0 0 0 0 0 0 0 0" ascent="800" descent="-200" x-height="624" cap-height="709" bbox="-89 -225 1174 958" underline-thickness="50" underline-position="-55" unicode-range="U+0020-U+2122"/>
<missing-glyph horiz-adv-x="349" />
<glyph glyph-name=".notdef" horiz-adv-x="349" />
<glyph glyph-name=".null" horiz-adv-x="0" />
<glyph glyph-name="nonmarkingreturn" horiz-adv-x="333" />
<glyph glyph-name="space" unicode=" "  horiz-adv-x="349" />
<glyph glyph-bame="tab" unicode="&#x09;" horiz-adv-x="349" />
<glyph glyph-bame="uni00A0" unicode="&#xa0;" horiz-adv-x="349" />
<glyph glyph-name="exclam" unicode="!" horiz-adv-x="327" d="M312 113l-133 -135q0 1 -25.5 16.5l-56.5 34.5l-55.5 35t-26.5 17l134 151l163 -119v0zM288 327l-209 -80l-61 400l268 62l2 -382v0z" />
<glyph glyph-name="quotedbl" unicode="&#x22;" horiz-adv-x="557" d="M306 815l-12 -77q-8 -54 -57 -91.5t-106 -62.5q-32 -13 -62.5 -23l-53.5 -17l76 271h34.5h72.5h74.5h33.5v0zM556 815l-12 -77q-8 -54 -57 -91.5t-106 -62.5q-32 -13 -62.5 -23l-53.5 -17l76 271h34.5h72.5h74.5h33.5v0z" />
<glyph glyph-name="dollar" unicode="$" horiz-adv-x="395" d="M360 170q-16 -32 -43.5 -55t-62.5 -40v-75h-140v103l-96 53q53 14 80 39.5t27 59.5q-1 15 -5.5 31t-15.5 34q-7 12 -15.5 23l-16.5 22q-9 10 -17.5 21t-15.5 23q-9 17 -13 32.5t-4 29.5q1 29 14.5 54t33.5 47q9 11 20 20t24 16v101h140v-94l104 -63q-25 -15 -44 -32.5 t-28 -38.5q-1 -3 -2.5 -6t-2.5 -6q-2 -6 -2.5 -12t-0.5 -12q0 -15 5.5 -28t15.5 -24q37 -40 57.5 -79t20.5 -77q0 -16 -4 -33t-13 -34v0z" />
<glyph glyph-name="ampersand" unicode="&#x26;" horiz-adv-x="833" d="M796 319l-133 -97l82 -137l-117 -126l-151 154l-26 -20.5l-26 -21.5l-0.5 -0.5t-1.5 -0.5q-22 -20 -46 -38.5t-51 -31.5q-10 -4 -21.5 -6.5t-23.5 -2.5q-10 0 -20.5 2.5t-18.5 6.5q-51 32 -89.5 72.5t-69.5 83.5q-12 15 -23 31l-22 31q28 68 69 126t97 103l-65 147 q56 42 119 72.5t139 42.5h120l95 -83q5 -4 8.5 -11.5t4.5 -15.5v-2.5v-2.5q0 -4 -1.5 -8.5t-4.5 -7.5l-116 -114l81 -103l175 105l37 -147v0zM367 205l-89 133l-36 -117q19 -10 41.5 -14t47.5 -4q9 0 18 0.5t18 1.5v0zM459 572q-26 13 -55 21t-60 13q4 -22 13.5 -43 t28.5 -42q22 5 39.5 18.5t33.5 32.5v0z" />
<glyph glyph-name="quotesingle" unicode="'" horiz-adv-x="320" d="M306 815l-12 -77q-8 -54 -57 -91.5t-106 -62.5q-32 -13 -62.5 -23l-53.5 -17l76 271h34.5h72.5h74.5h33.5v0z" />
<glyph glyph-name="parenleft" unicode="(" horiz-adv-x="312" d="M298 37l-32 -179q-108 36 -180 160.5t-72 287.5q0 158 67.5 280.5t169.5 163.5l46 -175q-33 -14 -51 -61.5t-26 -100.5q-4 -27 -5.5 -52.5t-1.5 -47.5q0 -23 2 -52t6 -59q9 -55 27 -103.5t50 -61.5v0z" />
<glyph glyph-name="parenright" unicode=")" horiz-adv-x="312" d="M302 306q0 -163 -72 -287.5t-180 -159.5l-32 178q32 13 50 61.5t27 103.5q4 30 6 59t2 52q0 22 -1.5 47.5t-5.5 52.5q-8 53 -26 100.5t-51 61.5l46 175q102 -41 169.5 -163.5t67.5 -280.5v0z" />
<glyph glyph-name="asterisk" unicode="*" horiz-adv-x="445" d="M238 638l-63 10l53 -33l-47 -48l-39 41l15 -51h-68l11 52l-34 -42l-48 48l47 35l-57 -12v68l58 -11l-48 35l48 47l32 -43l-9 53h68l-11 -52l35 42l47 -47l-52 -35l62 11v-68v0z" />
<glyph glyph-name="plus" unicode="+" horiz-adv-x="445" d="M453 274h-162v-162h-136v162h-162v136h162v162h136v-162h162v-136v0z" />
<glyph glyph-name="comma" unicode="," horiz-adv-x="320" d="M306 139l-12 -77q-8 -54 -57 -91t-106 -62q-32 -13 -62.5 -23l-53.5 -17l76 270h34.5h72.5h74.5h33.5v0z" />
<glyph glyph-name="hyphen" unicode="-" horiz-adv-x="253" d="M241 274h-230v136h230v-136v0z" />
<glyph glyph-name="period" unicode="." horiz-adv-x="327" d="M312 113l-133 -135q0 1 -25.5 16.5l-56.5 34.5l-55.5 35t-26.5 17l134 151l163 -119v0z" />
<glyph glyph-name="slash" unicode="/" horiz-adv-x="536" d="M511 800l-397 -1000h-90l398 1000h89v0z" />
<glyph glyph-name="zero" unicode="0" horiz-adv-x="800" d="M763 355q0 -147 -85 -251t-278 -104t-278.5 104t-85.5 251q0 146 85.5 250t278.5 104t278 -104t85 -250v0zM526 372q0 53 -36.5 90.5t-88.5 37.5t-89 -37.5t-37 -90.5t37 -90.5t89 -37.5t88.5 37.5t36.5 90.5v0z" />
<glyph glyph-name="one" unicode="1" horiz-adv-x="513" d="M490 0h-278l-1 479l-185 28l-3 25q111 42 215.5 86.5t200.5 90.5l41 -14l10 -695v0z" />
<glyph glyph-name="two" unicode="2" horiz-adv-x="708" d="M676 232l-114 -232h-530l212 302q-97 25 -154.5 79.5t-57.5 121.5q0 5 0.5 9.5t0.5 9.5q1 4 2 9t2 9q26 95 101.5 132.5t161.5 42.5q9 1 17.5 1h17.5q120 0 180.5 -66t62.5 -144v-5v-4q0 -26 -6.5 -52t-19.5 -49l-118 -212q48 3 109 16t133 32v0zM373 466q0 34 -24.5 58 t-59.5 24t-59.5 -24t-24.5 -58t24.5 -57.5t59.5 -23.5t59.5 23.5t24.5 57.5v0z" />
<glyph glyph-name="three" unicode="3" horiz-adv-x="483" d="M461 532q0 -25 -8.5 -50.5t-23.5 -50.5q-15 -26 -36 -51t-47 -51q46 -30 76 -68.5t30 -94.5v-9t-1 -10q-6 -57 -57.5 -91.5t-112.5 -56.5q-14 -6 -28 -10.5t-28 -9.5l-203 72q2 1 3.5 2t3.5 2q4 3 8 5.5t8 4.5q39 24 72 52t33 67q-1 49 -38.5 79.5t-82.5 54.5v22.5v21.5 q67 32 96.5 71t32.5 85q4 49 -27.5 77t-70.5 51q-1 0 -1.5 0.5l-0.5 0.5q-7 5 -14.5 9t-14.5 9l182 63q113 -38 181 -86t69 -110v0z" />
<glyph glyph-name="four" unicode="4" horiz-adv-x="792" d="M756 323l-3 -191l-94 3v-135h-244l8 128l-368 -5l-19 66l429 520h209l-18 -385l100 -1v0zM438 524q-50 -36 -92 -80.5t-78 -94.5l161 -12l9 187v0z" />
<glyph glyph-name="five" unicode="5" horiz-adv-x="536" d="M512 709q-7 -74 -74.5 -113.5t-183.5 -50.5l-8 -105q107 -16 182 -61t78 -146q4 -122 -73 -174t-196 -59q-73 -4 -124 4.5t-89 34.5v7.5v7.5v6.5v7.5q69 13 129 42.5t73 99.5q1 5 1.5 10t0.5 9q-1 53 -53.5 88.5t-135.5 39.5q0 44 0.5 88t1.5 88t1.5 88t0.5 88h469v0z " />
<glyph glyph-name="six" unicode="6" horiz-adv-x="669" d="M639 642q-60 -43 -111 -87.5t-89 -91.5q88 -38 138 -98t50 -140q0 -16 -2 -31.5t-6 -32.5q-21 -84 -86.5 -129.5t-195.5 -44.5q-150 0 -230.5 82t-75.5 220q5 137 104 240t244 187l130 -37.5l130 -36.5v0zM432 276q0 46 -32 78t-76 32t-76 -32t-32 -78q0 -45 32 -77 t76 -32t76 32t32 77v0z" />
<glyph glyph-name="seven" unicode="7" horiz-adv-x="650" d="M620 709q-27 -56 -50.5 -111.5t-43.5 -110.5q-44 -121 -72.5 -241.5t-44.5 -245.5h-312q39 119 93 246.5t124 264.5l-284 -46l4 244h586v0z" />
<glyph glyph-name="eight" unicode="8" horiz-adv-x="629" d="M601 204q0 -90 -84 -153.5t-202 -63.5t-202 63.5t-84 153.5q0 48 25.5 90t68.5 72q-35 29 -55.5 66t-20.5 80q0 87 80.5 149t193.5 62q114 0 194.5 -62t80.5 -149q0 -44 -22.5 -83t-60.5 -68q41 -30 64.5 -70.5t23.5 -86.5v0zM375 155q0 25 -18 42t-44 17q-25 0 -43 -17 t-18 -42t18 -42t43 -17q26 0 44 17t18 42v0zM391 473q0 32 -24 54.5t-58 22.5t-58 -22.5t-24 -54.5q0 -31 24 -54t58 -23t58 23t24 54v0z" />
<glyph glyph-name="nine" unicode="9" horiz-adv-x="669" d="M639 413q-5 -136 -104 -239.5t-244 -186.5l-130.5 35.5l-130.5 37.5q61 44 112 88.5t88 90.5q-87 38 -137.5 98t-49.5 139q0 15 2 31.5t6 32.5q20 84 85.5 130.5t195.5 45.5q150 0 231 -82.5t76 -220.5v0zM467 433q0 45 -31.5 77t-75.5 32q-45 0 -76.5 -32t-31.5 -77 q0 -46 31.5 -78t76.5 -32q44 0 75.5 32t31.5 78v0z" />
<glyph glyph-name="colon" unicode=":" horiz-adv-x="327" d="M312 113l-133 -135q0 1 -25.5 16.5l-56.5 34.5l-55.5 35t-26.5 17l134 151l163 -119v0zM312 393l-133 -135l-25.5 16l-56.5 35l-55.5 35t-26.5 17l134 151l163 -119v0z" />
<glyph glyph-name="semicolon" unicode=";" horiz-adv-x="320" d="M306 139l-12 -77q-8 -54 -57 -91t-106 -62q-32 -13 -62.5 -23l-53.5 -17l76 270h34.5h72.5h74.5h33.5v0zM312 393l-133 -135l-25.5 16l-56.5 35l-55.5 35t-26.5 17l134 151l163 -119v0z" />
<glyph glyph-name="less" unicode="&#x3c;" horiz-adv-x="445" d="M437 171l-61 -106l-359 207v80l359 207l61 -106l-38 -22l-84 -48l-83 -48t-39 -23l244 -141v0z" />
<glyph glyph-name="equal" unicode="=" horiz-adv-x="445" d="M453 174h-460v136h460v-136v0zM453 354h-460v136h460v-136v0z" />
<glyph glyph-name="greater" unicode="&#x3e;" horiz-adv-x="445" d="M431 272l-359 -207l-61 106l244 141q-1 1 -39 23l-83 48l-84 48l-38 22l61 106l359 -207v-80v0z" />
<glyph glyph-name="question" unicode="?" horiz-adv-x="379" d="M362 268l-10 -6l-10 -6q-23 -14 -47 -26.5t-49 -17.5q-3 -1 -5.5 -1.5t-4.5 -0.5q-2 -1 -4.5 -1.5t-5.5 -0.5l131 -95l-132 -135q0 1 -26 16.5l-57 34.5l-55.5 35t-26.5 17l109 122q-45 0 -80 15.5t-55 49.5q-9 15 -13 30t-4 30q0 25 10.5 49.5t26.5 48.5 q13 19 19.5 36.5t6.5 33.5q0 7 -1.5 13.5t-3.5 13.5q-7 20 -19 40.5t-28 40.5l191 105q32 -16 61 -34t48 -46q11 -15 18.5 -31t7.5 -36q0 -13 -4 -28t-14 -33q-4 -7 -7 -15l-6 -16q0 -1 -0.5 -2l-1.5 -3q-1 -4 -3 -8.5t-4 -9.5q-6 -14 -9.5 -29.5t-3.5 -31.5q0 -6 1 -12 l2 -12q2 -7 4 -13t5 -12q7 -12 15 -23.5t17 -22.5q1 -2 2 -3.5t2 -2.5l6.5 -8.5l6.5 -8.5v0z" />
<glyph glyph-name="A" unicode="A" horiz-adv-x="888" d="M884 0h-285l-46 113h-236l-41 -113h-265l280 709h258l335 -709v0zM474 304l-47 112l-41 -112h88v0z" />
<glyph glyph-name="B" unicode="B" horiz-adv-x="692" d="M674 174q-2 -9 -6 -18.5t-9 -19.5q-20 -37 -58 -70.5t-79 -50.5q-16 -7 -32 -11t-31 -4h-117h-106h-106h-117q8 178 8 355t-8 354h424q8 0 16.5 -1.5t17.5 -4.5q33 -11 65.5 -39t57.5 -60q25 -31 41 -58.5t17 -39.5q2 -21 -18.5 -50.5t-44.5 -60.5l-21.5 -28l-19.5 -27 l18.5 -17l18.5 -18l16.5 -15l16.5 -15q23 -24 40 -47.5t17 -44.5v-4.5t-1 -4.5v0zM389 200q0 25 -28.5 40.5t-67.5 25.5q0 -20 1 -40.5l2 -40.5l2 -32t1 -32q40 8 65.5 22.5t24.5 56.5v0zM384 470q-3 32 -31 46.5t-63 22.5q-1 -35 -1.5 -70.5t-0.5 -70.5q38 5 67 18.5 t29 46.5v2v2v1v2v0z" />
<glyph glyph-name="C" unicode="C" horiz-adv-x="553" d="M545 207l-101 -222q-179 29 -298.5 134t-119.5 241q0 132 112 234.5t281 136.5l124 -206q-82 -17 -134.5 -60.5t-52.5 -98.5t53.5 -98.5t135.5 -60.5v0z" />
<glyph glyph-name="D" unicode="D" horiz-adv-x="722" d="M644 571q35 -47 53.5 -101.5t21.5 -110.5v-8v-8q0 -103 -55 -193.5t-165 -131.5q-45 -17 -95.5 -18t-107.5 0h-30.5h-31.5h-106.5h-106.5q7 178 7 355t-7 354h288q110 -1 195.5 -33.5t139.5 -104.5v0zM459 343q-31 65 -71.5 90t-84.5 28q-1 -58 -1 -116.5t1 -117.5 q53 5 92 34.5t64 81.5v0z" />
<glyph glyph-name="E" unicode="E" horiz-adv-x="593" d="M548 520q-61 10 -123.5 11.5t-125.5 -3.5q-1 -20 -1 -41v-42q62 -4 123.5 -2.5t122.5 11.5l-42 -189h-205q0 -10 0.5 -20.5t0.5 -21.5q0 -10 0.5 -20.5t0.5 -21.5q62 -4 123.5 -2.5t122.5 11.5l-42 -190h-123.5h-123.5h-123.5h-123.5q4 89 5.5 177.5t1.5 177.5 q0 88 -2 177t-5 177h124h125h124h124l42 -189v0z" />
<glyph glyph-name="F" unicode="F" horiz-adv-x="631" d="M585 503q-45 9 -96.5 14.5t-103.5 7.5q-21 1 -42 1h-42q0 -12 -0.5 -23.5t-0.5 -22.5q-1 -11 -1 -22.5v-23.5h229l32 -226q-45 9 -96 15t-103 9q-15 0 -30.5 0.5t-30.5 0.5q0 -29 1 -58t1 -58l2 -59l2 -58h-295q3 89 5 177.5t2 177.5q0 88 -2 177t-5 177h542l32 -206v0z " />
<glyph glyph-name="G" unicode="G" horiz-adv-x="790" d="M728 0h-368q-37 0 -64.5 3.5t-52.5 16.5q-10 5 -20 11.5t-20 15.5q-13 10 -26.5 21.5l-27.5 24.5q-53 49 -96.5 111.5t-42.5 130.5q0 21 5.5 42t16.5 42q65 117 174 196.5t279 127.5l130 -191q-85 -33 -164 -72.5t-137 -100.5q-8 -8 -11.5 -16t-3.5 -16q0 -10 5.5 -20 t13.5 -20q40 -46 75 -61t63 -13l2 208l267 -75q-7 -44 -10 -87t-3 -85q0 -49 4.5 -97.5t11.5 -96.5v0z" />
<glyph glyph-name="H" unicode="H" horiz-adv-x="791" d="M734 0h-295q2 58 3.5 115.5t2.5 115.5h-141q1 -58 2.5 -115.5t3.5 -115.5h-295q4 89 5.5 177.5t1.5 177.5q0 88 -2 177t-5 177h295q-2 -56 -3.5 -113t-2.5 -114h141q-1 57 -2.5 114t-3.5 113h295q-3 -88 -5 -177t-2 -177q0 -89 1.5 -177.5t5.5 -177.5v0z" />
<glyph glyph-name="I" unicode="I" horiz-adv-x="325" d="M310 0h-295q3 89 5 177.5t2 177.5q0 88 -2 177t-5 177h295q-3 -88 -5 -177t-2 -177q0 -89 1.5 -177.5t5.5 -177.5v0z" />
<glyph glyph-name="J" unicode="J" horiz-adv-x="587" d="M538 709q0 -10 -0.5 -20.5t-0.5 -21.5q-3 -125 -4.5 -248.5t3.5 -243.5q-28 -58 -64 -102.5t-85 -72.5h-22h-22h-55.5h-54.5q-38 1 -76.5 2.5t-77.5 5.5l-74 268q43 -16 91 -23.5t103 -6.5q32 2 50 28t15 78q-3 57 -8.5 113.5t-10.5 113.5l-6 65.5l-6 64.5h305v0z" />
<glyph glyph-name="K" unicode="K" horiz-adv-x="825" d="M754 57l-292 -57l-169 239q0 -30 1 -60t1 -59q1 -30 2.5 -60t2.5 -60h-296q7 89 10.5 177.5t3.5 177.5q0 88 -3.5 177t-10.5 177h296q-3 -73 -4.5 -147t-2.5 -148l127 295l292 -57l-178 -307l220 -288v0z" />
<glyph glyph-name="L" unicode="L" horiz-adv-x="610" d="M560 273l-49 -273h-505q7 89 10 177.5t3 177.5q0 88 -3.5 177t-9.5 177h302q-5 -134 -7.5 -220t-1.5 -164q0 -18 0.5 -37t0.5 -38q64 -1 120 3.5t111 14.5q7 1 14.5 2.5t14.5 2.5v0z" />
<glyph glyph-name="M" unicode="M" horiz-adv-x="1009" d="M1000 0h-299l-51 245l-160 -245l-158 254l-65 -254h-268l175 709h201l141 -318q44 72 85.5 151.5t80.5 166.5h194q15 -184 45 -361.5t79 -347.5v0z" />
<glyph glyph-name="N" unicode="N" horiz-adv-x="831" d="M788 0h-195l-317 326v-50t-1 -50v-31.5v-31.5q-1 -41 -0.5 -81.5t2.5 -81.5h-271q11 86 16.5 174t5.5 176q0 89 -5.5 178.5t-16.5 180.5h203l295 -264l-6 132l-6 132h296q-15 -175 -11 -352.5t11 -356.5v0z" />
<glyph glyph-name="O" unicode="O" horiz-adv-x="787" d="M778 355q0 -162 -105 -258.5t-279 -96.5t-279.5 96.5t-105.5 258.5q0 161 105.5 257.5t279.5 96.5t279 -96.5t105 -257.5v0zM508 362q0 47 -33.5 80.5t-80.5 33.5t-80.5 -33.5t-33.5 -80.5t33.5 -80.5t80.5 -33.5t80.5 33.5t33.5 80.5v0z" />
<glyph glyph-name="P" unicode="P" horiz-adv-x="721" d="M643 531q11 -19 15.5 -40.5t4.5 -44.5q0 -14 -1.5 -28t-4.5 -28q-11 -50 -35 -97.5t-51 -80.5q-1 0 -1.5 -1t-1.5 -2q-17 -19 -41.5 -31.5t-57.5 -14.5q-49 -4 -92.5 -2.5t-83.5 5.5l4 -83.5t6 -82.5h-295q15 176 15.5 353t-15.5 356h295q72 -1 120 -6t73 -22 q49 -34 87 -71t60 -79v0zM422 431q5 8 6.5 15t1.5 14q0 12 -5.5 22.5t-14.5 17.5q-27 26 -56 43.5t-60 30.5q-3 -64 -4.5 -128.5t-0.5 -128.5q44 13 77.5 41.5t55.5 72.5v0z" />
<glyph glyph-name="Q" unicode="Q" d="M771 355q0 -89 -33 -159t-93 -117l98 -71l-161 -141l-98 142q-22 -4 -46.5 -6.5t-50.5 -2.5q-174 0 -279.5 96.5t-105.5 258.5q0 161 105.5 257.5t279.5 96.5t279 -96.5t105 -257.5v0zM501 362q0 47 -33.5 80.5t-80.5 33.5t-80.5 -33.5t-33.5 -80.5t33.5 -80.5 t80.5 -33.5t80.5 33.5t33.5 80.5v0z" />
<glyph glyph-name="R" unicode="R" horiz-adv-x="795" d="M715 22l-249 -36q-36 39 -68.5 82l-63.5 86l-17 23.5l-16 23.5l-12 16.5l-12 16.5q0 -21 -1.5 -47.5t-2.5 -53.5q-1 -9 -1.5 -17.5t-0.5 -17.5q-2 -31 -3.5 -57t-2.5 -41h-259q5 56 7.5 117t2.5 125q0 29 -0.5 58.5t-1.5 58.5q-3 92 -8.5 181.5t-12.5 168.5h293 q20 0 41 -0.5t43 -1.5q56 -2 105 -7t66 -16q47 -31 82.5 -64t57.5 -71q5 -9 8.5 -17.5t5.5 -16.5t3 -16.5t1 -17.5q0 -49 -28 -94t-62 -83q-10 -11 -22.5 -19.5t-27.5 -14.5q12 -30 30.5 -70t45.5 -81q17 -25 37 -49.5t43 -47.5v0zM399 423q4 8 6 13t2 9t-1.5 7t-4.5 6 q-2 3 -5.5 6t-7.5 7q-21 19 -44 30l-46 21l-10 4l-10 4q-1 -29 -2.5 -54.5t-1.5 -49.5q-1 -25 -1 -50.5v-54.5q41 11 73 37t53 65v0z" />
<glyph glyph-name="S" unicode="S" horiz-adv-x="505" d="M438 116q-29 -55 -82.5 -89.5t-118.5 -57.5l-236 129q68 19 102.5 51t33.5 75q0 19 -6 40t-20 43q-8 14 -18.5 27l-20.5 26l-0.5 0.5l-0.5 0.5q-12 14 -23 29t-20 31q-11 21 -16 40.5t-5 38.5q0 36 17 68.5t43 60.5q29 32 71 54.5t96 40.5l200 -121q-31 -19 -55 -41 t-37 -49q-2 -4 -3.5 -7.5t-2.5 -7.5q-2 -8 -3 -15.5t-1 -14.5q0 -19 7 -36.5t20 -31.5q38 -41 63 -81t34 -79q2 -10 3 -20t1 -20q0 -21 -5.5 -42t-16.5 -42v0z" />
<glyph glyph-name="T" unicode="T" horiz-adv-x="709" d="M644 709l-52 -244q-17 0 -34.5 2t-35.5 5h-1.5h-1.5l-36 4t-36 2q-1 -69 -1 -141t2 -145l2 -96.5t3 -95.5h-285q2 48 3.5 97t1.5 99q2 71 2 141.5t-1 138.5h-5.5h-5.5q-41 -1 -82 -3t-81 -13l20 249h624v0z" />
<glyph glyph-name="U" unicode="U" horiz-adv-x="811" d="M746 0h-263l-6 48.5l-6 49.5q-4 -6 -8.5 -12t-9.5 -12q-5 -8 -10.5 -15.5t-11.5 -14.5q-10 -14 -20 -26.5t-20 -23.5q-103 -1 -198.5 20t-184.5 61q19 98 26.5 186.5t7.5 169.5q0 74 -5.5 142.5t-13.5 135.5h72.5h72.5h72.5h72.5v-6.5v-6.5q-2 -116 -7.5 -228.5 t-32.5 -206.5q28 -26 66.5 -42t87.5 -16q8 0 17 0.5t18 1.5q-6 81 -8 165.5t-1 169.5q1 42 3 84.5l4 84.5h286q-3 -88 -5 -177t-2 -177q0 -89 1.5 -177.5t5.5 -177.5v0z" />
<glyph glyph-name="V" unicode="V" horiz-adv-x="908" d="M827 645q-70 -161 -128 -322.5t-105 -322.5h-145.5h-146.5l-142.5 309.5t-158.5 308.5l274 91l81 -172.5l80 -173.5l57 189l56 188l69.5 -23.5l69.5 -23.5l69.5 -24l69.5 -24v0z" />
<glyph glyph-name="W" unicode="W" horiz-adv-x="1229" d="M1118 667l-198 -667h-187l-159 288l-150 -288h-211q-46 158 -98 317t-114 320l283 72l86 -316l204 316l190 -285l92 285l262 -42v0z" />
<glyph glyph-name="X" unicode="X" horiz-adv-x="848" d="M765 58l-299 -58l-86 115l-86 -115l-299 58l115 137.5l109 135.5l-217 291l266 87l54 -81.5l58 -83.5l58 83.5l54 81.5l266 -87l-217 -291l109.5 -135.5l114.5 -137.5v0z" />
<glyph glyph-name="Y" unicode="Y" horiz-adv-x="749" d="M682 709l-279 -709h-291l104 236l-215 473h269l87 -214l81 214h244v0z" />
<glyph glyph-name="Z" unicode="Z" horiz-adv-x="794" d="M733 709l-275 -456l255 13l-68 -266h-634l269 464l-269 -23l71 268h651v0z" />
<glyph glyph-name="bracketleft" unicode="[" horiz-adv-x="319" d="M305 -200h-290v250.5v249.5v250v250h290v-74h-102v-852h102v-74v0z" />
<glyph glyph-name="backslash" unicode="\" horiz-adv-x="536" d="M506 -200h-90l-397 1000h89l398 -1000v0z" />
<glyph glyph-name="bracketright" unicode="]" horiz-adv-x="319" d="M319 -200h-290v74h102v852h-102v74h290v-250v-250v-249.5v-249.5v-1z" />
<glyph glyph-name="asciicircum" unicode="^" horiz-adv-x="515" d="M507 420l-106 -61l-141 244q-1 -1 -23 -39l-47 -83l-49 -83.5l-22 -38.5l-106 61l207 359h80l207 -359v0z" />
<glyph glyph-name="underscore" unicode="_" horiz-adv-x="465" d="M486 -196h-500v96h500v-96v0z" />
<glyph glyph-name="grave" unicode="`" horiz-adv-x="331" d="M315 660l-118 -24q-56 23 -104.5 60.5t-89.5 89.5l153 56l159 -182v0z" />
<glyph glyph-name="a" unicode="a" d="M778 0h-251l-40 99h-208l-36 -99h-233l246 624h227l295 -624v0zM417 268l-41 98l-36 -98h77v0z" />
<glyph glyph-name="b" unicode="b" horiz-adv-x="641" d="M593 153q-2 -8 -5 -16t-7 -16q-18 -33 -51.5 -63t-70.5 -45q-14 -6 -28 -9.5t-27 -3.5h-102.5h-93.5h-94.5h-102.5q5 104 6.5 208t-0.5 208q-1 52 -2.5 104t-3.5 104h374q7 0 14.5 -1.5t14.5 -3.5q30 -10 58.5 -35t50.5 -52q22 -28 36 -52.5t15 -34.5q1 -18 -16 -43.5 t-38 -52.5q-1 0 -1.5 -1l-0.5 -1l-19 -25l-17 -23l16 -14.5l16 -15.5l17.5 -16l16.5 -16q19 -20 32.5 -39t13.5 -37v-2v-2t-0.5 -2t-0.5 -2v0zM342 176q0 22 -24.5 36t-59.5 22q0 -16 0.5 -32t1.5 -32v-4.5t1 -4.5q0 -14 1 -27.5t1 -27.5q35 8 57.5 20.5t21.5 49.5v0z M338 414q-3 28 -27.5 40.5t-55.5 19.5q-1 -31 -1.5 -61.5t-0.5 -62.5q34 5 60 17t25 42v1.5v1.5v0.5v1.5v0z" />
<glyph glyph-name="c" unicode="c" horiz-adv-x="502" d="M480 182l-89 -195q-158 26 -263 118t-105 212q0 116 98.5 206.5t247.5 119.5l109 -181q-72 -15 -118.5 -53.5t-46.5 -86.5q0 -49 47 -87t120 -53v0z" />
<glyph glyph-name="d" unicode="d" horiz-adv-x="677" d="M567 502q31 -41 47.5 -89t18.5 -98v-6.5v-7.5q0 -90 -48.5 -170t-145.5 -115q-39 -15 -83.5 -16t-94.5 0h-27h-28h-47.5h-46.5h-46.5h-47.5q4 104 5.5 208t-0.5 208q0 52 -1.5 104t-3.5 104h254q96 -1 171.5 -29.5t123.5 -92.5v0zM404 302q-28 57 -63 79t-74 25 q-1 -52 -1 -103.5t1 -102.5q47 5 81 30.5t56 71.5v0z" />
<glyph glyph-name="e" unicode="e" horiz-adv-x="522" d="M482 458q-54 8 -108.5 9.5t-110.5 -2.5q0 -9 -0.5 -18t-0.5 -18v-19v-18q55 -4 109 -2.5t108 10.5l-37 -167h-181q0 -9 0.5 -18t0.5 -19q0 -9 0.5 -18.5t0.5 -18.5q55 -4 109 -2t108 10l-37 -167h-145.5h-144.5h-72.5h-72.5q7 156 6.5 312t-6.5 312h109.5h109.5h108.5 h109.5l37 -166v0z" />
<glyph glyph-name="f" unicode="f" horiz-adv-x="555" d="M515 443q-38 7 -82 12t-89 7q-20 1 -40 1h-39q-1 -20 -1.5 -40.5t-0.5 -40.5h202l28 -199q-38 8 -81.5 13t-88.5 8q-15 0 -29.5 0.5t-29.5 0.5q0 -26 0.5 -51.5t1.5 -50.5q1 -26 1.5 -51.5t1.5 -51.5h-259q6 156 6 312t-6 312h477l28 -181v0z" />
<glyph glyph-name="g" unicode="g" horiz-adv-x="695" d="M663 0h-324q-33 0 -56.5 3t-46.5 14l-17 10.5t-18 13.5l-23.5 19.5t-24.5 22.5q-46 42 -84.5 97t-37.5 115q0 18 4.5 36.5t14.5 37.5q58 103 153.5 173t245.5 112l114 -168q-75 -29 -144.5 -64t-120.5 -88q-7 -7 -10.5 -14.5t-2.5 -14.5q0 -4 1.5 -8.5t3.5 -8.5 q2 -5 5 -9l7 -9q32 -37 61 -51.5t52 -13.5h4.5h3.5l2 183l235 -66q-6 -38 -9 -75.5t-3 -74.5q0 -43 4 -86t11 -86v0z" />
<glyph glyph-name="h" unicode="h" horiz-adv-x="696" d="M646 0h-260q2 51 3.5 102t2.5 101h-124q0 -50 1.5 -101t3.5 -102h-260q7 156 6.5 312t-6.5 312h260q-2 -49 -3.5 -99.5t-1.5 -100.5h124q-1 50 -2.5 100.5t-3.5 99.5h260q-6 -156 -6.5 -312t6.5 -312v0z" />
<glyph glyph-name="i" unicode="i" horiz-adv-x="286" d="M273 0h-260q6 156 6 312t-6 312h260q-6 -156 -6.5 -312t6.5 -312v0z" />
<glyph glyph-name="j" unicode="j" horiz-adv-x="517" d="M493 624q-3 -119 -4.5 -237.5t2.5 -232.5q-25 -51 -56.5 -90t-74.5 -64h-20.5h-21.5h-46.5h-46.5q-34 1 -68 2.5t-68 4.5l-65 236q38 -14 80 -21t90 -6q29 2 44.5 25t13.5 69q-3 50 -7.5 99.5l-9.5 100.5l-6 56.5t-5 57.5h269v0z" />
<glyph glyph-name="k" unicode="k" horiz-adv-x="726" d="M693 50l-257 -50l-149 210q1 -52 2.5 -104.5t3.5 -105.5h-260q11 156 11 312t-11 312h260q-2 -64 -3.5 -129.5t-2.5 -130.5l112 260l257 -50l-157 -270l194 -254v0z" />
<glyph glyph-name="l" unicode="l" horiz-adv-x="537" d="M512 240l-43 -240h-444q12 156 11.5 312t-11.5 312h265q-5 -118 -6.5 -194t-1.5 -143q0 -17 0.5 -33.5t0.5 -33.5q56 -1 105 3t97 12q7 1 13.5 2.5t13.5 2.5v0z" />
<glyph glyph-name="m" unicode="m" horiz-adv-x="969" d="M925 0h-263l-45 216l-141 -216l-139 224l-57 -224h-236l154 624h177l124 -280q39 64 75.5 134t70.5 146h171q13 -162 39.5 -318.5t69.5 -305.5v0z" />
<glyph glyph-name="n" unicode="n" horiz-adv-x="757" d="M722 0h-171l-279 287v-44t-1 -44v-28v-27q-1 -36 -0.5 -72t2.5 -72h-239q10 76 15 152.5t5 153.5q-1 79 -5.5 158.5t-14.5 159.5h179l260 -232q-1 29 -2.5 58t-2.5 58q-2 29 -3 58t-3 58h260q-11 -128 -10 -258.5t6 -260.5q1 -21 1.5 -41t1.5 -41q0 -6 0.5 -11.5 t0.5 -11.5v0z" />
<glyph glyph-name="o" unicode="o" horiz-adv-x="744" d="M710 312q0 -142 -92.5 -227t-245.5 -85t-246 85t-93 227q0 143 93 227.5t246 84.5t245.5 -84.5t92.5 -227.5v0zM473 319q0 41 -29.5 70.5t-71.5 29.5q-41 0 -70.5 -29.5t-29.5 -70.5q0 -42 29.5 -71.5t70.5 -29.5q42 0 71.5 29.5t29.5 71.5v0z" />
<glyph glyph-name="p" unicode="p" horiz-adv-x="634" d="M588 467q9 -16 13 -35t4 -39q0 -12 -1.5 -24.5t-4.5 -25.5q-9 -44 -30 -85.5t-44 -70.5q-1 0 -1.5 -1t-1.5 -2q-15 -17 -36.5 -28t-50.5 -13q-43 -3 -81.5 -2t-73.5 5q2 -37 3.5 -73.5t5.5 -72.5h-260q7 80 10.5 160t3.5 161q0 75 -3.5 151t-10.5 152h260q63 -1 105 -5 t64 -20q44 -30 77 -62t53 -70v0zM393 379q4 8 5.5 14.5t1.5 12.5q0 11 -4.5 19t-12.5 15q-24 23 -49.5 38t-52.5 27q-3 -57 -4.5 -113.5t-0.5 -112.5q38 11 68 36t49 64v0z" />
<glyph glyph-name="q" unicode="q" horiz-adv-x="744" d="M710 312q0 -78 -29 -139.5t-82 -102.5l87 -63l-142 -124l-86 125q-20 -4 -41.5 -6t-44.5 -2q-153 0 -246 85t-93 227q0 143 93 227.5t246 84.5t245.5 -84.5t92.5 -227.5v0zM473 319q0 41 -29.5 70.5t-71.5 29.5q-41 0 -70.5 -29.5t-29.5 -70.5q0 -42 29.5 -71.5 t70.5 -29.5q42 0 71.5 29.5t29.5 71.5v0z" />
<glyph glyph-name="r" unicode="r" horiz-adv-x="700" d="M643 19l-219 -31q-32 35 -61 72.5t-56 76.5l-14 18.5t-13 18.5l-11.5 16l-11.5 16q0 -18 -1 -41.5l-2 -47.5q-1 -10 -1.5 -20t-0.5 -19q-2 -25 -3 -45.5t-2 -32.5h-228q5 49 7 102.5t2 109.5q0 27 -0.5 54.5t-1.5 54.5q-3 79 -8 156.5t-11 146.5h258q17 0 36 -0.5 t39 -1.5q49 -1 92 -5.5t58 -14.5q41 -28 72.5 -57t50.5 -62q9 -15 12.5 -30t3.5 -30q0 -42 -24 -81t-52 -71l-1.5 -1.5l-1.5 -1.5q-9 -10 -20 -17.5t-24 -12.5q10 -27 27 -62.5t41 -71.5q14 -22 31.5 -43.5t37.5 -41.5v0zM365 372q4 7 5.5 11.5t1.5 8.5t-2 7l-4 6q-2 2 -5 4 t-6 5q-18 17 -38 26.5t-41 18.5q-4 1 -8.5 3t-9.5 4l-2 -46t-1 -43q-1 -23 -1 -46v-49q36 11 64 33.5t47 56.5v0z" />
<glyph glyph-name="s" unicode="s" horiz-adv-x="444" d="M405 102q-26 -49 -73 -79t-104 -50l-208 113q59 17 89.5 44.5t30.5 65.5q0 17 -5.5 35.5t-17.5 38.5q-7 12 -16 23.5l-18 22.5q-1 1 -1.5 2t-1.5 2l-19.5 24.5t-16.5 25.5q-10 19 -14.5 36.5t-4.5 33.5q1 32 16 60.5t37 53.5q26 27 63 47t84 36l176 -106q-28 -16 -49 -36 t-32 -44q-4 -10 -6 -19.5t-2 -19.5q0 -17 6 -32t17 -28q42 -45 65.5 -88.5t23.5 -87.5q0 -18 -4.5 -36.5t-14.5 -37.5v0z" />
<glyph glyph-name="t" unicode="t" horiz-adv-x="624" d="M596 624l-46 -215q-15 0 -30.5 2l-30.5 4l-33.5 4t-33.5 2v-122t1 -125l2 -87.5t3 -86.5h-251q2 44 3 88.5l2 88.5q1 62 1 122.5t-1 119.5h-5.5h-5.5q-35 -1 -71 -3t-72 -11l19 219h549v0z" />
<glyph glyph-name="u" unicode="u" horiz-adv-x="714" d="M682 0h-231q-1 11 -2.5 21.5t-2.5 21.5q-2 10 -3 21t-3 22l-10.5 -14l-10.5 -14l-25 -33.5t-24 -29.5q-91 -1 -175.5 17t-161.5 54q17 86 23.5 163.5t6.5 148.5q0 65 -4.5 126.5t-12.5 119.5h127.5h127.5v-6.5v-6.5q-2 -102 -7 -200.5t-28 -180.5q25 -23 59.5 -37.5 t77.5 -14.5h7.5t7.5 1q3 0 6.5 0.5t7.5 0.5q-5 72 -6.5 146t-0.5 149q0 37 1.5 74.5t3.5 74.5h252q-6 -156 -6.5 -312t6.5 -312v0z" />
<glyph glyph-name="v" unicode="v" horiz-adv-x="799" d="M727 568q-61 -142 -112.5 -284t-92.5 -284h-128h-129l-61 136l-64 136l-68 136l-72 136l241 80l71.5 -152l70.5 -153l16.5 55.5l16.5 55.5l33.5 110.5l32.5 110.5l61.5 -20.5l61.5 -20.5q30 -11 60.5 -21l61.5 -21v0z" />
<glyph glyph-name="w" unicode="w" horiz-adv-x="1082" d="M984 587l-174 -587h-165l-139 253l-132 -253h-186q-41 139 -87 279t-100 282l249 63l76 -278l180 278l167 -251l81 251l230 -37v0z" />
<glyph glyph-name="x" unicode="x" horiz-adv-x="746" d="M676 51l-263 -51l-76 101l-76 -101l-263 51l101.5 121l95.5 119l-191 256l235 77q22 -36 47 -72l51 -73l51 73l48 72l234 -77l-191 -256l95.5 -119l101.5 -121v0z" />
<glyph glyph-name="y" unicode="y" horiz-adv-x="659" d="M600 624l-245 -624h-256l91 208l-189 416h237l76 -188l71 188h215v0z" />
<glyph glyph-name="z" unicode="z" horiz-adv-x="699" d="M638 624l-242 -401l224 11l-59 -234h-558l236 408l-236 -20l62 236h573v0z" />
<glyph glyph-name="braceleft" unicode="{" horiz-adv-x="337" d="M321 -200h-164q-27 1 -46 20t-19 46v178v179q0 26 -17.5 44.5t-42.5 19.5h-17v17h17q25 2 42.5 20.5t17.5 44.5v183.5v182.5q0 27 19 46t46 19h164v-17h-12q-26 0 -45 -19t-19 -45v-183.5v-183.5q0 -18 -9.5 -33t-23.5 -23q14 -8 23.5 -23.5t9.5 -33.5v-178v-179 q0 -26 19 -45t45 -19l12 -1v-17v0z" />
<glyph glyph-name="bar" unicode="|" horiz-adv-x="165" d="M153 -200h-136v1000h136v-1000v0z" />
<glyph glyph-name="braceright" unicode="}" horiz-adv-x="337" d="M323 287h-17q-25 -1 -42.5 -19.5t-17.5 -44.5v-179v-178q0 -27 -19 -46t-46 -19l-164 -1v17h12q26 1 45 20t19 45v179v178q0 18 9.5 33.5t23.5 23.5q-14 8 -23.5 23t-9.5 33v183.5v183.5q0 26 -19 45t-45 19h-12v17h164q27 0 46 -19t19 -46v-182.5v-183.5 q0 -26 17.5 -44.5t42.5 -20.5h17v-17v0z" />
<glyph glyph-name="asciitilde" unicode="~" horiz-adv-x="529" d="M505 328l-78 -75l-4 6t-5 6q-12 17 -31.5 30.5t-43.5 13.5q-5 0 -10.5 -0.5t-10.5 -2.5l-27 -10t-24 -11l-43 -20.5t-39 -12.5q-6 -1 -11.5 -1h-10.5q-54 4 -87 29t-56 68l69 65l7.5 -5.5l7.5 -5.5q9 -7 18 -13t19 -11q6 -3 13 -4.5t13 -1.5h3.5h3.5q1 0 3 0.5t3 1.5 q59 23 100 40.5t72 17.5h6t6 -1q63 -9 90.5 -38.5t46.5 -64.5v0z" />
<glyph glyph-name="exclamdown" unicode="&#xa1;" horiz-adv-x="327" d="M312 -125l-268 -62l-2 382l209 80l61 -400v0zM315 441l-134 -151l-163 119l133 135l25.5 -16l56.5 -35l55.5 -35t26.5 -17v0z" />
<glyph glyph-name="cent" unicode="&#xa2;" horiz-adv-x="447" d="M427 236l-79 -175l-28 6t-28 7v-74h-140v137q-61 41 -96.5 98t-35.5 121q0 65 35.5 121.5t96.5 97.5v134h140v-71q9 2 18 4.5t19 4.5l96 -162q-64 -13 -105 -47t-41 -78q0 -43 42 -77t106 -47v0z" />
<glyph glyph-name="sterling" unicode="&#xa3;" horiz-adv-x="395" d="M360 170q-16 -32 -43.5 -55t-62.5 -40v-75h-140v103l-96 53q53 14 80 39.5t27 59.5q-1 15 -5.5 31t-15.5 34q-7 12 -15.5 23l-16.5 22q-9 10 -17.5 21t-15.5 23q-9 17 -13 32.5t-4 29.5q1 29 14.5 54t33.5 47q9 11 20 20t24 16v101h140v-94l104 -63q-25 -15 -44 -32.5 t-28 -38.5q-1 -3 -2.5 -6t-2.5 -6q-2 -6 -2.5 -12t-0.5 -12q0 -15 5.5 -28t15.5 -24q37 -40 57.5 -79t20.5 -77q0 -16 -4 -33t-13 -34v0z" />
<glyph glyph-name="currency" unicode="&#xa4;" horiz-adv-x="693" d="M662 97q-12 -13 -24.5 -24t-26.5 -22q-27 -20 -55.5 -33t-57.5 -19q-17 -4 -34 -6t-34 -2q-109 0 -199 71.5t-120 177.5h-80l54 72h13q-1 8 -1 16.5v16.5h-66l54 72h19q22 105 106.5 187t211.5 81q71 0 132.5 -29.5t104.5 -78.5l-124 -90q-25 29 -54 41.5t-58 12.5 q-50 0 -93.5 -34.5t-61.5 -89.5h336l-53 -72h-295q0 -8 0.5 -16.5t1.5 -16.5h346l-53 -72h-272q23 -49 64 -76.5t86 -27.5h6.5t6.5 1q25 2 49.5 14.5t45.5 35.5l125 -90v0z" />
<glyph glyph-name="yen" unicode="&#xa5;" horiz-adv-x="749" d="M715 709l-138 -349h109l-31 -61h-101l-19 -47h151l-31 -61h-121l16 -191h-320l15 191h-182l31 61h147l-21 47h-157l31 61h99l-159 349h269l87 -214l81 214h244v0z" />
<glyph glyph-name="brokenbar" unicode="&#xa6;" horiz-adv-x="165" d="M151 -178h-136v460h136v-460v0zM151 322h-136v460h136v-460v0z" />
<glyph glyph-name="section" unicode="&#xa7;" horiz-adv-x="557" d="M559 285q0 -55 -27.5 -95.5t-80.5 -62.5q15 -15 26.5 -30.5t19.5 -30.5q12 -20 17.5 -40t5.5 -40q0 -92 -66 -144.5t-192 -52.5q-100 0 -157 36t-57 89q0 32 25.5 57.5t61.5 25.5q29 0 46 -14.5t30 -43.5q2 -4 3.5 -8.5t3.5 -8.5q8 -20 21 -33.5t52 -13.5q36 0 56.5 17.5 t20.5 46.5q0 32 -21 50t-58 34l-27 10t-29 11q-18 6 -34 12.5l-31 12.5q-86 36 -129.5 78.5t-43.5 119.5q0 59 29 106t85 75q-35 26 -52.5 55t-17.5 62q0 74 66 125t182 51q104 0 158 -32t54 -83q0 -31 -20.5 -51.5t-48.5 -20.5q-30 0 -47 13.5t-30 41.5q-13 29 -31.5 42 t-51.5 13t-51.5 -15.5t-18.5 -41.5q0 -21 13 -36t38 -29q16 -8 36 -16.5l44 -18.5l29 -11.5l27 -10.5q36 -13 66.5 -28.5t54.5 -39.5q25 -25 38 -58.5t13 -73.5v0zM416 242q0 19 -10 33t-30 27q-5 4 -11.5 7.5l-13.5 7.5q-59 32 -104.5 45t-59.5 13q-26 0 -44 -16.5 t-18 -39.5q0 -18 10.5 -32t30.5 -27q4 -2 8 -4.5l9 -5.5q59 -31 102 -46t66 -15q30 0 47.5 15t17.5 38v0z" />
<glyph glyph-name="dieresis" unicode="&#xa8;" horiz-adv-x="521" d="M256 726l-112 -112l-113 112l113 113l112 -113v0zM497 726l-113 -112l-112 112l112 113l113 -113v0z" />
<glyph glyph-name="copyright" unicode="&#xa9;" horiz-adv-x="773" d="M756 331q0 -73 -28 -140.5t-81 -121.5q-52 -52 -119 -79.5t-142 -27.5t-141 27t-120 80q-53 53 -81 120t-28 142q0 74 28 141.5t80 120.5t120.5 81t142.5 28q72 0 140 -28t120 -80q52 -51 80.5 -120t28.5 -143v0zM695 331q0 62 -23.5 119.5t-67.5 100.5 q-43 43 -100.5 66.5t-117.5 23.5q-62 0 -119 -23.5t-101 -67.5q-44 -45 -67 -101t-23 -118q0 -63 23.5 -119t67.5 -100q45 -44 100.5 -67t118.5 -23t118.5 23.5t98.5 66.5q44 45 68 102t24 117v0zM564 221q-33 -55 -77 -81.5t-102 -26.5q-94 0 -156 61.5t-62 153.5 q0 93 62.5 154t156.5 61q27 0 46 -5t33 -11q13 -6 22 -11t15 -5q11 0 16 7t9 23h26l3 -164h-28q-16 65 -49 98.5t-79 33.5q-50 0 -76 -44t-26 -131q0 -89 29 -135.5t82 -46.5q35 0 67.5 21.5t60.5 64.5l27 -17v0z" />
<glyph glyph-name="ordfeminine" unicode="&#xaa;" horiz-adv-x="362" d="M352 482h-114l-19 46h-94l-16 -46h-106l112 284h103l134 -284v0zM188 604l-19 45l-16 -45h35v0z" />
<glyph glyph-name="guillemotleft" unicode="&#xab;" horiz-adv-x="408" d="M210 456l-95 -106l93 -102l-29 -98l-168 127l2 146l166 130l31 -97v0zM400 456l-95 -106l93 -102l-29 -98l-168 127l2 146l166 130l31 -97v0z" />
<glyph glyph-name="logicalnot" unicode="&#xac;" horiz-adv-x="400" d="M387 236h-46v116h-331v46h375v-4h2v-158v0z" />
<glyph glyph-name="registered" unicode="&#xae;" horiz-adv-x="517" d="M487 578q0 -92 -69 -154t-158 -62q-91 0 -162 60t-71 155q0 96 72 159.5t165 63.5q90 0 156.5 -65.5t66.5 -156.5v0zM453 578q0 79 -57.5 136t-135.5 57q-79 0 -140 -53t-61 -135q0 -84 59.5 -137.5t141.5 -53.5q76 0 134.5 54t58.5 132v0zM349 471h-38q-2 4 -4 10.5 t-4 14.5q-1 5 -2.5 10t-2.5 10q-6 21 -14 37.5t-24 16.5h-39v-99h-35v223h86h2.5h2.5q27 -1 49 -12.5t22 -42.5q0 -23 -14 -36.5t-34 -21.5q14 -6 21.5 -24t12.5 -38q1 -3 2 -6.5t2 -6.5q2 -10 5 -19t6 -16v0zM308 635v2v2q-1 1 -1 2v2t-0.5 1.5l-0.5 0.5q0 1 -0.5 1t-0.5 1 l-0.5 1t-0.5 2q-6 6 -12.5 10t-15.5 4h-55v-64h49q14 0 26 10.5t12 24.5v0z" />
<glyph glyph-name="degree" unicode="&#xb0;" horiz-adv-x="250" d="M234 643q0 -44 -31.5 -75.5t-75.5 -31.5q-45 0 -76.5 31.5t-31.5 75.5t32 75.5t76 31.5q43 0 75 -31.5t32 -75.5v0zM193 643q0 27 -19.5 47t-46.5 20q-28 0 -47.5 -19.5t-19.5 -47.5t19.5 -47.5t47.5 -19.5q27 0 46.5 19.5t19.5 47.5v0z" />
<glyph glyph-name="plusminus" unicode="&#xb1;" horiz-adv-x="445" d="M453 -6h-460v136h460v-136v0zM453 314h-162v-162h-136v162h-162v136h162v162h136v-162h162v-136v0z" />
<glyph glyph-name="uni00B2" unicode="&#xb2;" horiz-adv-x="283" d="M270 583l-45 -93h-212l85 121q-39 10 -62 32t-23 49q0 3 0.5 6.5t1.5 7.5q10 38 40.5 53t64.5 17h7h7q50 0 74 -27.5t23 -60.5q0 -10 -2.5 -20.5t-7.5 -19.5l-47 -84q19 1 43.5 6t52.5 13v0zM149 676q0 14 -9.5 23.5t-23.5 9.5t-24 -9.5t-10 -23.5q0 -13 10 -22.5 t24 -9.5t23.5 9.5t9.5 22.5v0z" />
<glyph glyph-name="uni00B3" unicode="&#xb3;" horiz-adv-x="193" d="M184 703q0 -20 -12.5 -40.5t-33.5 -40.5q19 -12 31 -27.5t12 -37.5v-2v-2q-1 -1 -1 -2v-2q-2 -23 -23 -37t-45 -23l-11.5 -4l-10.5 -4l-81 29q3 2 5.5 3.5t5.5 3.5q15 10 27.5 21t12.5 26q0 20 -15 31.5t-33 21.5v9.5v8.5q26 13 38 28.5t13 33.5q2 19 -10 30t-27 20 q0 1 -1 1t-2 1q-3 2 -5.5 3.5t-5.5 3.5l72 25q45 -15 72.5 -34t27.5 -44v0z" />
<glyph glyph-name="acute" unicode="&#xb4;" horiz-adv-x="331" d="M331 836q-41 -52 -89.5 -89.5t-104.5 -60.5l-118 24l159 182l153 -56v0z" />
<glyph glyph-name="uni00B5" unicode="&#xb5;" horiz-adv-x="620" d="M621 151q0 -7 -6 -29.5t-20 -48.5q-23 -42 -54 -62.5t-70 -20.5q-43 0 -67 24t-27 70q-20 -47 -53.5 -69.5t-81.5 -22.5t-77 23t-34 66q-9 -58 -13 -101.5t-8 -74.5q0 -8 -1 -14.5l-2 -12.5q-7 -47 -22 -66.5t-53 -19.5q-31 0 -48.5 19t-17.5 51q0 29 18.5 83.5 t41.5 137.5l12.5 48.5t12.5 53.5l52 247h164l-57 -265q-4 -16 -5.5 -30t-1.5 -24q0 -24 12 -36.5t32 -12.5q29 0 45.5 27.5t29.5 85.5l56 255h163l-54 -251q-2 -10 -3 -19.5t-1 -16.5q0 -21 10 -32.5t28 -11.5q16 0 25 7.5t17 19.5q3 4 5 8t5 8q2 4 4 7.5t4 6.5q5 6 10 9.5 t13 3.5t12.5 -6t4.5 -14v0z" />
<glyph glyph-name="paragraph" unicode="&#xb6;" horiz-adv-x="431" d="M282 -165h-75v450q-87 16 -144.5 85.5t-57.5 157.5q0 98 61 162.5t153 83.5q5 1 10.5 1t12.5 -1h6.5h7.5q6 0 12.5 0.5t13.5 1.5v-941v0zM447 699h-45v-864h-74v940h119v-76v0z" />
<glyph glyph-name="cedilla" unicode="&#xb8;" horiz-adv-x="320" d="M287 46l-76 -271q-1 1 -34.5 1h-72.5h-74h-33l11 76q8 55 57 92.5t106 61.5q32 13 62.5 23l53.5 17v0z" />
<glyph glyph-name="uni00B9" unicode="&#xb9;" horiz-adv-x="205" d="M196 490h-111l-1 192l-74 11l-1 10l86 34.5t81 36.5l16 -6l4 -278v0z" />
<glyph glyph-name="ordmasculine" unicode="&#xba;" horiz-adv-x="338" d="M301 612q0 -64 -42 -103t-111 -39q-70 0 -111.5 39t-41.5 103q0 65 41.5 103.5t111.5 38.5q69 0 111 -38.5t42 -103.5v0zM193 615q0 19 -13 32t-32 13t-32.5 -13t-13.5 -32t13.5 -32.5t32.5 -13.5t32 13.5t13 32.5v0z" />
<glyph glyph-name="guillemotright" unicode="&#xbb;" horiz-adv-x="408" d="M209 277l-168 -127l-29 98l93 102l-95 106l31 97l166 -130l2 -146v0zM399 277l-168 -127l-29 98l93 102l-95 106l31 97l166 -130l2 -146v0z" />
<glyph glyph-name="questiondown" unicode="&#xbf;" horiz-adv-x="379" d="M360 -86l-191 -105q-31 17 -60 35t-49 46q-10 15 -18 31t-8 36q0 13 4 28t14 32q4 7 7 15l6 16q0 1 0.5 2l1.5 3q1 4 3 9t4 9q6 14 9.5 29.5t3.5 31.5q0 6 -0.5 12t-2.5 13q-1 6 -3.5 12t-5.5 12q-6 13 -14.5 24l-17.5 22q-1 2 -2 3.5t-2 2.5l-6.5 8.5l-6.5 8.5l10 6 l10 6q23 14 47 26.5t49 17.5q3 1 5.5 1.5t4.5 0.5q2 1 4.5 1.5t5.5 0.5l-131 95l132 135l26 -16l57 -35l55.5 -35t26.5 -17l-109 -122q45 0 80.5 -15t54.5 -50q9 -15 13 -30t4 -30q0 -25 -10 -49.5t-27 -48.5q-13 -19 -19.5 -36t-6.5 -34q0 -7 1.5 -13.5t3.5 -12.5 q8 -20 19.5 -40.5t27.5 -40.5v-1z" />
<glyph glyph-name="Agrave" unicode="&#xc0;" horiz-adv-x="961" d="M884 0h-285l-46 113h-236l-41 -113h-265l280 709h258l335 -709v0zM474 304l-47 112l-41 -112h88v0zM545 760l-118 -24q-56 23 -104.5 60.5t-89.5 89.5l153 56l159 -182v0z" />
<glyph glyph-name="Aacute" unicode="&#xc1;" horiz-adv-x="961" d="M884 0h-285l-46 113h-236l-41 -113h-265l280 709h258l335 -709v0zM474 304l-47 112l-41 -112h88v0zM641 876q-41 -52 -89.5 -89.5t-104.5 -60.5l-118 24l159 182l153 -56v0z" />
<glyph glyph-name="Acircumflex" unicode="&#xc2;" horiz-adv-x="961" d="M884 0h-285l-46 113h-236l-41 -113h-265l280 709h258l335 -709v0zM474 304l-47 112l-41 -112h88v0zM624 755l-97 -31l-106 95l-102 -93l-98 29l127 168l146 -2l130 -166v0z" />
<glyph glyph-name="Atilde" unicode="&#xc3;" horiz-adv-x="961" d="M884 0h-285l-46 113h-236l-41 -113h-265l280 709h258l335 -709v0zM474 304l-47 112l-41 -112h88v0zM655 798l-78 -75l-4 6t-5 6q-12 17 -31.5 30.5t-43.5 13.5q-5 0 -10.5 -0.5t-10.5 -2.5l-27 -10t-24 -11l-43 -20.5t-39 -12.5q-6 -1 -11.5 -1h-10.5q-54 4 -87 29 t-56 68l69 65l7.5 -5.5l7.5 -5.5q9 -7 18 -13t19 -11q6 -3 13 -4.5t13 -1.5h3.5h3.5q1 0 3 0.5t3 1.5q59 23 100 40.5t72 17.5h6t6 -1q63 -9 90.5 -38.5t46.5 -64.5v0z" />
<glyph glyph-name="Adieresis" unicode="&#xc4;" horiz-adv-x="961" d="M884 0h-285l-46 113h-236l-41 -113h-265l280 709h258l335 -709v0zM474 304l-47 112l-41 -112h88v0zM416 836l-112 -112l-113 112l113 113l112 -113v0zM657 836l-113 -112l-112 112l112 113l113 -113v0z" />
<glyph glyph-name="Aring" unicode="&#xc5;" horiz-adv-x="961" d="M884 0h-285l-46 113h-236l-41 -113h-265l280 709h258l335 -709v0zM474 304l-47 112l-41 -112h88v0zM585 836q0 -50 -48.5 -86t-116.5 -36t-116.5 36t-48.5 86q0 51 48.5 86.5t116.5 35.5t116.5 -35.5t48.5 -86.5v0zM472 839q0 19 -14.5 32t-34.5 13t-34.5 -13t-14.5 -32 t14.5 -32t34.5 -13t34.5 13t14.5 32v0z" />
<glyph glyph-name="AE" unicode="&#xc6;" horiz-adv-x="1230" d="M1174 520q-61 10 -123.5 11.5t-125.5 -3.5q-1 -20 -1 -41v-42q62 -4 123.5 -2.5t122.5 11.5l-42 -189h-204v-42t1 -42q62 -4 123.5 -2.5t122.5 10.5l-42 -189h-122h-120h-120h-122l2 112h-237l-89 -112h-265l586 709h490l42 -189v0zM652 416l-90 -112h89l1 112v0z" />
<glyph glyph-name="Ccedilla" unicode="&#xc7;" horiz-adv-x="571" d="M417 106l-76 -271q-1 1 -34.5 1h-72.5h-74.5h-33.5l12 76q8 55 57 92t106 62q32 13 62.5 23l53.5 17v0zM545 207l-101 -222q-179 29 -298.5 134t-119.5 241q0 132 112 234.5t281 136.5l124 -206q-82 -17 -134.5 -60.5t-52.5 -98.5t53.5 -98.5t135.5 -60.5v0z" />
<glyph glyph-name="Egrave" unicode="&#xc8;" horiz-adv-x="593" d="M548 520q-61 10 -123.5 11.5t-125.5 -3.5q-1 -20 -1 -41v-42q62 -4 123.5 -2.5t122.5 11.5l-42 -189h-205q0 -10 0.5 -20.5t0.5 -21.5q0 -10 0.5 -20.5t0.5 -21.5q62 -4 123.5 -2.5t122.5 11.5l-42 -190h-123.5h-123.5h-123.5h-123.5q4 89 5.5 177.5t1.5 177.5 q0 88 -2 177t-5 177h124h125h124h124l42 -189v0zM385 760l-118 -24q-56 23 -104.5 60.5t-89.5 89.5l153 56l159 -182v0z" />
<glyph glyph-name="Eacute" unicode="&#xc9;" horiz-adv-x="593" d="M548 520q-61 10 -123.5 11.5t-125.5 -3.5q-1 -20 -1 -41v-42q62 -4 123.5 -2.5t122.5 11.5l-42 -189h-205q0 -10 0.5 -20.5t0.5 -21.5q0 -10 0.5 -20.5t0.5 -21.5q62 -4 123.5 -2.5t122.5 11.5l-42 -190h-123.5h-123.5h-123.5h-123.5q4 89 5.5 177.5t1.5 177.5 q0 88 -2 177t-5 177h124h125h124h124l42 -189v0zM481 876q-41 -52 -89.5 -89.5t-104.5 -60.5l-118 24l159 182l153 -56v0z" />
<glyph glyph-name="Ecircumflex" unicode="&#xca;" horiz-adv-x="593" d="M548 520q-61 10 -123.5 11.5t-125.5 -3.5q-1 -20 -1 -41v-42q62 -4 123.5 -2.5t122.5 11.5l-42 -189h-205q0 -10 0.5 -20.5t0.5 -21.5q0 -10 0.5 -20.5t0.5 -21.5q62 -4 123.5 -2.5t122.5 11.5l-42 -190h-123.5h-123.5h-123.5h-123.5q4 89 5.5 177.5t1.5 177.5 q0 88 -2 177t-5 177h124h125h124h124l42 -189v0zM454 755l-97 -31l-106 95l-102 -93l-98 29l127 168l146 -2l130 -166v0z" />
<glyph glyph-name="Edieresis" unicode="&#xcb;" horiz-adv-x="593" d="M548 520q-61 10 -123.5 11.5t-125.5 -3.5q-1 -20 -1 -41v-42q62 -4 123.5 -2.5t122.5 11.5l-42 -189h-205q0 -10 0.5 -20.5t0.5 -21.5q0 -10 0.5 -20.5t0.5 -21.5q62 -4 123.5 -2.5t122.5 11.5l-42 -190h-123.5h-123.5h-123.5h-123.5q4 89 5.5 177.5t1.5 177.5 q0 88 -2 177t-5 177h124h125h124h124l42 -189v0zM246 836l-112 -112l-113 112l113 113l112 -113v0zM487 836l-113 -112l-112 112l112 113l113 -113v0z" />
<glyph glyph-name="Igrave" unicode="&#xcc;" horiz-adv-x="325" d="M310 0h-295q3 89 5 177.5t2 177.5q0 88 -2 177t-5 177h295q-3 -88 -5 -177t-2 -177q0 -89 1.5 -177.5t5.5 -177.5v0zM295 760l-118 -24q-56 23 -104.5 60.5t-88.5 89.5l152 56l159 -182v0z" />
<glyph glyph-name="Iacute" unicode="&#xcd;" horiz-adv-x="325" d="M310 0h-295q3 89 5 177.5t2 177.5q0 88 -2 177t-5 177h295q-3 -88 -5 -177t-2 -177q0 -89 1.5 -177.5t5.5 -177.5v0zM391 876q-41 -52 -89.5 -89.5t-104.5 -60.5l-118 24l159 182l153 -56v0z" />
<glyph glyph-name="Icircumflex" unicode="&#xce;" horiz-adv-x="325" d="M310 0h-295q3 89 5 177.5t2 177.5q0 88 -2 177t-5 177h295q-3 -88 -5 -177t-2 -177q0 -89 1.5 -177.5t5.5 -177.5v0zM374 755l-97 -31l-106 95l-102 -93l-98 29l127 168l146 -2l130 -166v0z" />
<glyph glyph-name="Idieresis" unicode="&#xcf;" horiz-adv-x="325" d="M310 0h-295q3 89 5 177.5t2 177.5q0 88 -2 177t-5 177h295q-3 -88 -5 -177t-2 -177q0 -89 1.5 -177.5t5.5 -177.5v0zM156 836l-112 -112l-113 112l113 113l112 -113v0zM397 836l-113 -112l-112 112l112 113l113 -113v0z" />
<glyph glyph-name="Eth" unicode="&#xd0;" horiz-adv-x="835" d="M722 571q38 -50 56.5 -109t18.5 -120q0 -103 -55.5 -193.5t-165.5 -131.5q-44 -16 -94.5 -17t-107.5 0h-31h-32h-106.5h-106.5q2 36 3 72l2 73q0 36 1 72t1 72l-65 -7l-2 139l67 -6q-1 74 -2.5 147.5t-4.5 146.5h289q110 -1 195 -33.5t140 -104.5v0zM536 343 q-20 44 -50.5 68.5t-63.5 36.5q-16 5 -32 8.5t-31 4.5v-13.5v-13.5q-1 -7 -1 -13.5v-13.5l70 3l6 -118l-76 4v-17.5t1 -16.5v-17.5v-17.5q5 0 9.5 1t9.5 2q48 8 91.5 36.5t66.5 76.5v0z" />
<glyph glyph-name="Ntilde" unicode="&#xd1;" horiz-adv-x="860" d="M788 0h-195l-317 326v-50t-1 -50v-31.5v-31.5q-1 -41 -0.5 -81.5t2.5 -81.5h-271q11 86 16.5 174t5.5 176q0 89 -5.5 178.5t-16.5 180.5h203l295 -264l-6 132l-6 132h296q-15 -175 -11 -352.5t11 -356.5v0zM665 798l-78 -75l-4 6t-5 6q-12 17 -31.5 30.5t-43.5 13.5 q-5 0 -10.5 -0.5t-10.5 -2.5l-27 -10t-24 -11l-43 -20.5t-39 -12.5q-6 -1 -11.5 -1h-10.5q-54 4 -87 29t-56 68l69 65l7.5 -5.5l7.5 -5.5q9 -7 18 -13t19 -11q6 -3 13 -4.5t13 -1.5h3.5h3.5q1 0 3 0.5t3 1.5q59 23 100 40.5t72 17.5h6t6 -1q63 -9 90.5 -38.5t46.5 -64.5v0z " />
<glyph glyph-name="Oacute" unicode="&#xd3;" d="M778 355q0 -162 -105 -258.5t-279 -96.5t-279.5 96.5t-105.5 258.5q0 161 105.5 257.5t279.5 96.5t279 -96.5t105 -257.5v0zM508 362q0 47 -33.5 80.5t-80.5 33.5t-80.5 -33.5t-33.5 -80.5t33.5 -80.5t80.5 -33.5t80.5 33.5t33.5 80.5v0zM651 876q-41 -52 -89.5 -89.5 t-104.5 -60.5l-118 24l159 182l153 -56v0z" />
<glyph glyph-name="Ocircumflex" unicode="&#xd4;" d="M778 355q0 -162 -105 -258.5t-279 -96.5t-279.5 96.5t-105.5 258.5q0 161 105.5 257.5t279.5 96.5t279 -96.5t105 -257.5v0zM508 362q0 47 -33.5 80.5t-80.5 33.5t-80.5 -33.5t-33.5 -80.5t33.5 -80.5t80.5 -33.5t80.5 33.5t33.5 80.5v0zM624 745l-97 -31l-106 95 l-102 -93l-98 29l127 168l146 -2l130 -166v0z" />
<glyph glyph-name="Otilde" unicode="&#xd5;" d="M778 355q0 -162 -105 -258.5t-279 -96.5t-279.5 96.5t-105.5 258.5q0 161 105.5 257.5t279.5 96.5t279 -96.5t105 -257.5v0zM508 362q0 47 -33.5 80.5t-80.5 33.5t-80.5 -33.5t-33.5 -80.5t33.5 -80.5t80.5 -33.5t80.5 33.5t33.5 80.5v0zM655 798l-78 -75l-4 6t-5 6 q-12 17 -31.5 30.5t-43.5 13.5q-5 0 -10.5 -0.5t-10.5 -2.5l-27 -10t-24 -11l-43 -20.5t-39 -12.5q-6 -1 -11.5 -1h-10.5q-54 4 -87 29t-56 68l69 65l7.5 -5.5l7.5 -5.5q9 -7 18 -13t19 -11q6 -3 13 -4.5t13 -1.5h3.5h3.5q1 0 3 0.5t3 1.5q59 23 100 40.5t72 17.5h6t6 -1 q63 -9 90.5 -38.5t46.5 -64.5v0z" />
<glyph glyph-name="Odieresis" unicode="&#xd6;" d="M778 355q0 -162 -105 -258.5t-279 -96.5t-279.5 96.5t-105.5 258.5q0 161 105.5 257.5t279.5 96.5t279 -96.5t105 -257.5v0zM508 362q0 47 -33.5 80.5t-80.5 33.5t-80.5 -33.5t-33.5 -80.5t33.5 -80.5t80.5 -33.5t80.5 33.5t33.5 80.5v0zM416 826l-112 -112l-113 112 l113 113l112 -113v0zM657 826l-113 -112l-112 112l112 113l113 -113v0z" />
<glyph glyph-name="multiply" unicode="&#xd7;" horiz-adv-x="445" d="M434 197l-96 -96l-115 115l-115 -115l-96 96l115 115l-115 115l96 96l115 -115l115 115l96 -96l-115 -115l115 -115v0z" />
<glyph glyph-name="Oslash" unicode="&#xd8;" d="M807 355q0 -162 -105 -258.5t-279 -96.5q-71 0 -131.5 17t-107.5 48l-34.5 -36l-34.5 -35l-26.5 26.5l-27.5 26.5l17.5 16l16.5 16l16.5 16l17.5 16q-43 46 -67 107.5t-24 136.5q0 161 105.5 257.5t279.5 96.5q71 0 131.5 -16.5t107.5 -48.5l34.5 36l33.5 36l27.5 -26.5 l26.5 -27.5l-16.5 -16l-16.5 -16l-17.5 -16l-16.5 -16q44 -46 67 -107.5t23 -135.5v0zM537 362q0 14 -3 26.5t-9 23.5l-76.5 -75.5l-76.5 -76.5q11 -6 24.5 -9t26.5 -3q47 0 80.5 33.5t33.5 80.5v0zM483 459q-13 8 -28 12.5t-32 4.5q-47 0 -80.5 -33.5t-33.5 -80.5 q0 -16 4.5 -31.5t12.5 -28.5l39.5 39.5l39.5 38.5l39 39.5l39 39.5v0z" />
<glyph glyph-name="Ugrave" unicode="&#xd9;" horiz-adv-x="811" d="M746 0h-263l-6 48.5l-6 49.5q-4 -6 -8.5 -12t-9.5 -12q-5 -8 -10.5 -15.5t-11.5 -14.5q-10 -14 -20 -26.5t-20 -23.5q-103 -1 -198.5 20t-184.5 61q19 98 26.5 186.5t7.5 169.5q0 74 -5.5 142.5t-13.5 135.5h72.5h72.5h72.5h72.5v-6.5v-6.5q-2 -116 -7.5 -228.5 t-32.5 -206.5q28 -26 66.5 -42t87.5 -16q8 0 17 0.5t18 1.5q-6 81 -8 165.5t-1 169.5q1 42 3 84.5l4 84.5h286q-3 -88 -5 -177t-2 -177q0 -89 1.5 -177.5t5.5 -177.5v0zM535 750l-118 -24q-56 23 -104.5 60.5t-89.5 89.5l153 56l159 -182v0z" />
<glyph glyph-name="Uacute" unicode="&#xda;" horiz-adv-x="811" d="M746 0h-263l-6 48.5l-6 49.5q-4 -6 -8.5 -12t-9.5 -12q-5 -8 -10.5 -15.5t-11.5 -14.5q-10 -14 -20 -26.5t-20 -23.5q-103 -1 -198.5 20t-184.5 61q19 98 26.5 186.5t7.5 169.5q0 74 -5.5 142.5t-13.5 135.5h72.5h72.5h72.5h72.5v-6.5v-6.5q-2 -116 -7.5 -228.5 t-32.5 -206.5q28 -26 66.5 -42t87.5 -16q8 0 17 0.5t18 1.5q-6 81 -8 165.5t-1 169.5q1 42 3 84.5l4 84.5h286q-3 -88 -5 -177t-2 -177q0 -89 1.5 -177.5t5.5 -177.5v0zM631 876q-41 -52 -89.5 -89.5t-104.5 -60.5l-118 24l159 182l153 -56v0z" />
<glyph glyph-name="Ucircumflex" unicode="&#xdb;" horiz-adv-x="811" d="M746 0h-263l-6 48.5l-6 49.5q-4 -6 -8.5 -12t-9.5 -12q-5 -8 -10.5 -15.5t-11.5 -14.5q-10 -14 -20 -26.5t-20 -23.5q-103 -1 -198.5 20t-184.5 61q19 98 26.5 186.5t7.5 169.5q0 74 -5.5 142.5t-13.5 135.5h72.5h72.5h72.5h72.5v-6.5v-6.5q-2 -116 -7.5 -228.5 t-32.5 -206.5q28 -26 66.5 -42t87.5 -16q8 0 17 0.5t18 1.5q-6 81 -8 165.5t-1 169.5q1 42 3 84.5l4 84.5h286q-3 -88 -5 -177t-2 -177q0 -89 1.5 -177.5t5.5 -177.5v0zM624 755l-97 -31l-106 95l-102 -93l-98 29l127 168l146 -2l130 -166v0z" />
<glyph glyph-name="Udieresis" unicode="&#xdc;" horiz-adv-x="811" d="M746 0h-263l-6 48.5l-6 49.5q-4 -6 -8.5 -12t-9.5 -12q-5 -8 -10.5 -15.5t-11.5 -14.5q-10 -14 -20 -26.5t-20 -23.5q-103 -1 -198.5 20t-184.5 61q19 98 26.5 186.5t7.5 169.5q0 74 -5.5 142.5t-13.5 135.5h72.5h72.5h72.5h72.5v-6.5v-6.5q-2 -116 -7.5 -228.5 t-32.5 -206.5q28 -26 66.5 -42t87.5 -16q8 0 17 0.5t18 1.5q-6 81 -8 165.5t-1 169.5q1 42 3 84.5l4 84.5h286q-3 -88 -5 -177t-2 -177q0 -89 1.5 -177.5t5.5 -177.5v0zM406 836l-112 -112l-113 112l113 113l112 -113v0zM647 836l-113 -112l-112 112l112 113l113 -113v0z " />
<glyph glyph-name="Thorn" unicode="&#xde;" horiz-adv-x="716" d="M664 459q11 -19 15.5 -40.5t4.5 -44.5q0 -13 -1.5 -27t-4.5 -28q-11 -52 -36.5 -100t-53.5 -81q-17 -20 -41 -32.5t-57 -14.5q-49 -3 -93 -2t-84 5q1 -12 1.5 -24t1.5 -23q0 -12 0.5 -23.5t1.5 -23.5h-284q18 179 15 357.5t-16 351.5h289l-10 -72h12q72 0 119.5 -5.5 t72.5 -22.5q49 -34 87 -71t61 -79v0zM443 359q4 8 6 15t2 14q0 12 -5.5 22.5t-14.5 18.5q-27 26 -56.5 43t-59.5 30q-4 -64 -5 -128.5t-1 -128.5q44 13 78 42t56 72v0z" />
<glyph glyph-name="germandbls" unicode="&#xdf;" horiz-adv-x="815" d="M763 96q-21 -41 -60 -64t-81 -37q-9 -4 -18.5 -7.5t-19.5 -6.5q-1 -1 -2 -1.5t-2 -0.5l-46.5 25.5l-46.5 25.5l-46.5 26l-46.5 26l7 12q31 8 55 26t24 49q0 5 -0.5 10.5t-2.5 10.5q-5 19 -16 35.5t-24 31.5q-1 2 -2 3.5t-2 2.5q-16 19 -27.5 39.5t-11.5 46.5q0 6 1 12.5 l2 13.5q5 17 14.5 33.5t22.5 30.5l3.5 3.5l2.5 2.5q9 8 20 16t22 15q7 4 14 7.5l13 6.5q-4 5 -8 8t-9 6q-10 6 -21.5 9t-22.5 3q-22 0 -40.5 -10t-29.5 -30q-5 -8 -7.5 -17t-3.5 -18q-7 -85 -3 -169.5t9 -167.5l4 -52t3 -52l-278 -80l14 317l-72 -8l-7 121l79 -5l-8 193 q-3 76 81 128.5t192 52.5q10 0 20 -0.5t20 -1.5q35 -4 70 -14.5t67 -29.5q64 -37 112 -98t48 -136q0 -18 -3.5 -36.5t-10.5 -37.5q-3 -8 -5.5 -15.5t-3.5 -14.5q-1 -3 -1 -5.5v-4.5q0 -9 3.5 -18t13.5 -20q26 -29 46.5 -62.5t20.5 -71.5q0 -14 -3.5 -28.5t-11.5 -28.5v0z " />
<glyph glyph-name="agrave" unicode="&#xe0;" d="M778 0h-251l-40 99h-208l-36 -99h-233l246 624h227l295 -624v0zM417 268l-41 98l-36 -98h77v0zM485 670l-118 -24q-56 23 -104.5 60.5t-89.5 89.5l153 56l159 -182v0z" />
<glyph glyph-name="aacute" unicode="&#xe1;" d="M778 0h-251l-40 99h-208l-36 -99h-233l246 624h227l295 -624v0zM417 268l-41 98l-36 -98h77v0zM591 786q-41 -52 -89.5 -89.5t-104.5 -60.5l-118 24l159 182l153 -56v0z" />
<glyph glyph-name="acircumflex" unicode="&#xe2;" d="M778 0h-251l-40 99h-208l-36 -99h-233l246 624h227l295 -624v0zM417 268l-41 98l-36 -98h77v0zM574 665l-97 -31l-106 95l-102 -93l-98 29l127 168l146 -2l130 -166v0z" />
<glyph glyph-name="atilde" unicode="&#xe3;" d="M778 0h-251l-40 99h-208l-36 -99h-233l246 624h227l295 -624v0zM417 268l-41 98l-36 -98h77v0zM595 718l-78 -75l-4 6t-5 6q-12 17 -31.5 30.5t-43.5 13.5q-5 0 -10.5 -0.5t-10.5 -2.5l-27 -10t-24 -11l-43 -20.5t-39 -12.5q-6 -1 -11.5 -1h-10.5q-54 4 -87 29t-56 68 l69 65l7.5 -5.5l7.5 -5.5q9 -7 18 -13t19 -11q6 -3 13 -4.5t13 -1.5h3.5h3.5q1 0 3 0.5t3 1.5q59 23 100 40.5t72 17.5h6t6 -1q63 -9 90.5 -38.5t46.5 -64.5v0z" />
<glyph glyph-name="adieresis" unicode="&#xe4;" d="M778 0h-251l-40 99h-208l-36 -99h-233l246 624h227l295 -624v0zM417 268l-41 98l-36 -98h77v0zM366 746l-112 -112l-113 112l113 113l112 -113v0zM607 746l-113 -112l-112 112l112 113l113 -113v0z" />
<glyph glyph-name="aring" unicode="&#xe5;" d="M778 0h-251l-40 99h-208l-36 -99h-233l246 624h227l295 -624v0zM417 268l-41 98l-36 -98h77v0zM535 756q0 -50 -48.5 -86t-116.5 -36t-116.5 36t-48.5 86q0 51 48.5 86.5t116.5 35.5t116.5 -35.5t48.5 -86.5v0zM422 759q0 19 -14.5 32t-34.5 13t-34.5 -13t-14.5 -32 t14.5 -32t34.5 -13t34.5 13t14.5 32v0z" />
<glyph glyph-name="ae" unicode="&#xe6;" horiz-adv-x="1082" d="M1033 458q-54 8 -108.5 9.5t-110.5 -2.5q0 -9 -0.5 -18t-0.5 -18v-19v-18q55 -4 109 -2.5t108 10.5l-37 -167h-180v-36.5t1 -37.5q55 -4 109 -2t107 9l-36 -166h-112h-109h-101.5h-103.5l1 99h-208l-79 -99h-233l516 624h431l37 -166v0zM574 366l-79 -98h78l1 98v0z" />
<glyph glyph-name="ccedilla" unicode="&#xe7;" horiz-adv-x="502" d="M367 86l-76 -271q-1 1 -34.5 1h-72.5h-74.5h-33.5l12 76q8 55 57 92t106 62q32 13 62.5 23l53.5 17v0zM480 182l-89 -195q-158 26 -263 118t-105 212q0 116 98.5 206.5t247.5 119.5l109 -181q-72 -15 -118.5 -53.5t-46.5 -86.5q0 -49 47 -87t120 -53v0z" />
<glyph glyph-name="egrave" unicode="&#xe8;" horiz-adv-x="522" d="M482 458q-54 8 -108.5 9.5t-110.5 -2.5q0 -9 -0.5 -18t-0.5 -18v-19v-18q55 -4 109 -2.5t108 10.5l-37 -167h-181q0 -9 0.5 -18t0.5 -19q0 -9 0.5 -18.5t0.5 -18.5q55 -4 109 -2t108 10l-37 -167h-145.5h-144.5h-72.5h-72.5q7 156 6.5 312t-6.5 312h109.5h109.5h108.5 h109.5l37 -166v0zM345 660l-118 -24q-56 23 -104.5 60.5t-89.5 89.5l153 56l159 -182v0z" />
<glyph glyph-name="eacute" unicode="&#xe9;" horiz-adv-x="522" d="M482 458q-54 8 -108.5 9.5t-110.5 -2.5q0 -9 -0.5 -18t-0.5 -18v-19v-18q55 -4 109 -2.5t108 10.5l-37 -167h-181q0 -9 0.5 -18t0.5 -19q0 -9 0.5 -18.5t0.5 -18.5q55 -4 109 -2t108 10l-37 -167h-145.5h-144.5h-72.5h-72.5q7 156 6.5 312t-6.5 312h109.5h109.5h108.5 h109.5l37 -166v0zM471 786q-41 -52 -89.5 -89.5t-104.5 -60.5l-118 24l159 182l153 -56v0z" />
<glyph glyph-name="ecircumflex" unicode="&#xea;" horiz-adv-x="522" d="M482 458q-54 8 -108.5 9.5t-110.5 -2.5q0 -9 -0.5 -18t-0.5 -18v-19v-18q55 -4 109 -2.5t108 10.5l-37 -167h-181q0 -9 0.5 -18t0.5 -19q0 -9 0.5 -18.5t0.5 -18.5q55 -4 109 -2t108 10l-37 -167h-145.5h-144.5h-72.5h-72.5q7 156 6.5 312t-6.5 312h109.5h109.5h108.5 h109.5l37 -166v0zM444 665l-97 -31l-106 95l-102 -93l-98 29l127 168l146 -2l130 -166v0z" />
<glyph glyph-name="edieresis" unicode="&#xeb;" horiz-adv-x="522" d="M482 458q-54 8 -108.5 9.5t-110.5 -2.5q0 -9 -0.5 -18t-0.5 -18v-19v-18q55 -4 109 -2.5t108 10.5l-37 -167h-181q0 -9 0.5 -18t0.5 -19q0 -9 0.5 -18.5t0.5 -18.5q55 -4 109 -2t108 10l-37 -167h-145.5h-144.5h-72.5h-72.5q7 156 6.5 312t-6.5 312h109.5h109.5h108.5 h109.5l37 -166v0zM226 746l-112 -112l-113 112l113 113l112 -113v0zM467 746l-113 -112l-112 112l112 113l113 -113v0z" />
<glyph glyph-name="igrave" unicode="&#xec;" horiz-adv-x="286" d="M273 0h-260q6 156 6 312t-6 312h260q-6 -156 -6.5 -312t6.5 -312v0zM295 660l-118 -24q-56 23 -104.5 60.5t-88.5 89.5l152 56l159 -182v0z" />
<glyph glyph-name="iacute" unicode="&#xed;" horiz-adv-x="286" d="M273 0h-260q6 156 6 312t-6 312h260q-6 -156 -6.5 -312t6.5 -312v0zM361 786q-41 -52 -89.5 -89.5t-104.5 -60.5l-118 24l159 182l153 -56v0z" />
<glyph glyph-name="icircumflex" unicode="&#xee;" horiz-adv-x="286" d="M273 0h-260q6 156 6 312t-6 312h260q-6 -156 -6.5 -312t6.5 -312v0zM344 665l-97 -31l-106 95l-102 -93l-98 29l127 168l146 -2l130 -166v0z" />
<glyph glyph-name="idieresis" unicode="&#xef;" horiz-adv-x="286" d="M273 0h-260q6 156 6 312t-6 312h260q-6 -156 -6.5 -312t6.5 -312v0zM136 746l-112 -112l-113 112l113 113l112 -113v0zM377 746l-113 -112l-112 112l112 113l113 -113v0z" />
<glyph glyph-name="eth" unicode="&#xf0;" horiz-adv-x="735" d="M635 502q31 -41 48 -89t19 -98v-6.5v-7.5q-1 -90 -49 -170.5t-146 -115.5q-38 -14 -82.5 -15t-94.5 0h-28h-28h-47.5h-46.5h-46.5h-47.5q2 32 3 63.5l2 63.5q0 32 0.5 64t0.5 63l-57 -6l-2 122l59 -5q0 32 -0.5 64.5t-0.5 65.5l-2 64.5t-3 64.5h255q96 -1 171 -29.5 t123 -92.5v0zM472 302q-18 38 -45 59.5t-55 32.5q-15 5 -29 8t-27 4v-12v-12q-1 -6 -1 -12v-12l62 3l5 -104l-67 3v-14.5t1 -15.5v-14.5v-15.5q4 0 7.5 0.5t6.5 1.5q43 7 82.5 32t59.5 68v0z" />
<glyph glyph-name="ntilde" unicode="&#xf1;" horiz-adv-x="757" d="M722 0h-171l-279 287v-44t-1 -44v-28v-27q-1 -36 -0.5 -72t2.5 -72h-239q10 76 15 152.5t5 153.5q-1 79 -5.5 158.5t-14.5 159.5h179l260 -232q-1 29 -2.5 58t-2.5 58q-2 29 -3 58t-3 58h260q-11 -128 -10 -258.5t6 -260.5q1 -21 1.5 -41t1.5 -41q0 -6 0.5 -11.5 t0.5 -11.5v0zM595 718l-78 -75l-4 6t-5 6q-12 17 -31.5 30.5t-43.5 13.5q-5 0 -10.5 -0.5t-10.5 -2.5l-27 -10t-24 -11l-43 -20.5t-39 -12.5q-6 -1 -11.5 -1h-10.5q-54 4 -87 29t-56 68l69 65l7.5 -5.5l7.5 -5.5q9 -7 18 -13t19 -11q6 -3 13 -4.5t13 -1.5h3.5h3.5q1 0 3 0.5 t3 1.5q59 23 100 40.5t72 17.5h6t6 -1q63 -9 90.5 -38.5t46.5 -64.5v0z" />
<glyph glyph-name="ograve" unicode="&#xf2;" horiz-adv-x="744" d="M710 312q0 -142 -92.5 -227t-245.5 -85t-246 85t-93 227q0 143 93 227.5t246 84.5t245.5 -84.5t92.5 -227.5v0zM473 319q0 41 -29.5 70.5t-71.5 29.5q-41 0 -70.5 -29.5t-29.5 -70.5q0 -42 29.5 -71.5t70.5 -29.5q42 0 71.5 29.5t29.5 71.5v0zM475 660l-118 -24 q-56 23 -104.5 60.5t-89.5 89.5l153 56l159 -182v0z" />
<glyph glyph-name="oacute" unicode="&#xf3;" horiz-adv-x="744" d="M710 312q0 -142 -92.5 -227t-245.5 -85t-246 85t-93 227q0 143 93 227.5t246 84.5t245.5 -84.5t92.5 -227.5v0zM473 319q0 41 -29.5 70.5t-71.5 29.5q-41 0 -70.5 -29.5t-29.5 -70.5q0 -42 29.5 -71.5t70.5 -29.5q42 0 71.5 29.5t29.5 71.5v0zM601 786 q-41 -52 -89.5 -89.5t-104.5 -60.5l-118 24l159 182l153 -56v0z" />
<glyph glyph-name="ocircumflex" unicode="&#xf4;" horiz-adv-x="744" d="M710 312q0 -142 -92.5 -227t-245.5 -85t-246 85t-93 227q0 143 93 227.5t246 84.5t245.5 -84.5t92.5 -227.5v0zM473 319q0 41 -29.5 70.5t-71.5 29.5q-41 0 -70.5 -29.5t-29.5 -70.5q0 -42 29.5 -71.5t70.5 -29.5q42 0 71.5 29.5t29.5 71.5v0zM574 655l-97 -31l-106 95 l-102 -93l-98 29l127 168l146 -2l130 -166v0z" />
<glyph glyph-name="otilde" unicode="&#xf5;" horiz-adv-x="744" d="M710 312q0 -142 -92.5 -227t-245.5 -85t-246 85t-93 227q0 143 93 227.5t246 84.5t245.5 -84.5t92.5 -227.5v0zM473 319q0 41 -29.5 70.5t-71.5 29.5q-41 0 -70.5 -29.5t-29.5 -70.5q0 -42 29.5 -71.5t70.5 -29.5q42 0 71.5 29.5t29.5 71.5v0zM605 708l-78 -75l-4 6t-5 6 q-12 17 -31.5 30.5t-43.5 13.5q-5 0 -10.5 -0.5t-10.5 -2.5l-27 -10t-24 -11l-43 -20.5t-39 -12.5q-6 -1 -11.5 -1h-10.5q-54 4 -87 29t-56 68l69 65l7.5 -5.5l7.5 -5.5q9 -7 18 -13t19 -11q6 -3 13 -4.5t13 -1.5h3.5h3.5q1 0 3 0.5t3 1.5q59 23 100 40.5t72 17.5h6t6 -1 q63 -9 90.5 -38.5t46.5 -64.5v0z" />
<glyph glyph-name="odieresis" unicode="&#xf6;" horiz-adv-x="744" d="M710 312q0 -142 -92.5 -227t-245.5 -85t-246 85t-93 227q0 143 93 227.5t246 84.5t245.5 -84.5t92.5 -227.5v0zM473 319q0 41 -29.5 70.5t-71.5 29.5q-41 0 -70.5 -29.5t-29.5 -70.5q0 -42 29.5 -71.5t70.5 -29.5q42 0 71.5 29.5t29.5 71.5v0zM366 736l-112 -112 l-113 112l113 113l112 -113v0zM607 736l-113 -112l-112 112l112 113l113 -113v0z" />
<glyph glyph-name="divide" unicode="&#xf7;" horiz-adv-x="445" d="M297 171q0 -31 -22 -53t-53 -22t-53 22t-22 53t22 53t53 22t53 -22t22 -53v0zM453 274h-460v136h460v-136v0zM297 511q0 -31 -22 -53t-53 -22t-53 22t-22 53t22 53t53 22t53 -22t22 -53v0z" />
<glyph glyph-name="oslash" unicode="&#xf8;" horiz-adv-x="744" d="M710 312q0 -142 -92.5 -227t-245.5 -85q-62 0 -115.5 14.5t-94.5 42.5q-7 -8 -15 -16l-15 -15l-15.5 -16t-15.5 -15q-6 5 -12 11t-11 12l-12 11.5l-12 11.5q5 5 10 9.5t10 9.5q10 9 20 19t20 19q-39 40 -60 94t-21 120q0 143 93 227.5t246 84.5q63 0 116 -14.5t95 -42.5 l30 31.5t29 31.5l24 -24l24 -23q-5 -5 -10 -9.5t-10 -9.5l-4.5 -4.5l-4.5 -4.5l-15.5 -14t-14.5 -15q38 -40 58.5 -94t20.5 -120v0zM473 319q0 11 -3 22.5t-8 21.5l-67.5 -66.5l-67.5 -67.5q11 -5 22 -8t23 -3q42 0 71.5 29.5t29.5 71.5v0zM425 404q-12 8 -25 11.5t-28 3.5 q-41 0 -70.5 -29.5t-29.5 -70.5q0 -15 4 -28.5t11 -24.5l23 23l23 23l46 46l46 46v0z" />
<glyph glyph-name="ugrave" unicode="&#xf9;" horiz-adv-x="714" d="M682 0h-231q-1 11 -2.5 21.5t-2.5 21.5q-2 10 -3 21t-3 22l-10.5 -14l-10.5 -14l-25 -33.5t-24 -29.5q-91 -1 -175.5 17t-161.5 54q17 86 23.5 163.5t6.5 148.5q0 65 -4.5 126.5t-12.5 119.5h127.5h127.5v-6.5v-6.5q-2 -102 -7 -200.5t-28 -180.5q25 -23 59.5 -37.5 t77.5 -14.5h7.5t7.5 1q3 0 6.5 0.5t7.5 0.5q-5 72 -6.5 146t-0.5 149q0 37 1.5 74.5t3.5 74.5h252q-6 -156 -6.5 -312t6.5 -312v0zM475 660l-118 -24q-56 23 -104.5 60.5t-89.5 89.5l153 56l159 -182v0z" />
<glyph glyph-name="uacute" unicode="&#xfa;" horiz-adv-x="714" d="M682 0h-231q-1 11 -2.5 21.5t-2.5 21.5q-2 10 -3 21t-3 22l-10.5 -14l-10.5 -14l-25 -33.5t-24 -29.5q-91 -1 -175.5 17t-161.5 54q17 86 23.5 163.5t6.5 148.5q0 65 -4.5 126.5t-12.5 119.5h127.5h127.5v-6.5v-6.5q-2 -102 -7 -200.5t-28 -180.5q25 -23 59.5 -37.5 t77.5 -14.5h7.5t7.5 1q3 0 6.5 0.5t7.5 0.5q-5 72 -6.5 146t-0.5 149q0 37 1.5 74.5t3.5 74.5h252q-6 -156 -6.5 -312t6.5 -312v0zM571 786q-41 -52 -89.5 -89.5t-104.5 -60.5l-118 24l159 182l153 -56v0z" />
<glyph glyph-name="ucircumflex" unicode="&#xfb;" horiz-adv-x="714" d="M682 0h-231q-1 11 -2.5 21.5t-2.5 21.5q-2 10 -3 21t-3 22l-10.5 -14l-10.5 -14l-25 -33.5t-24 -29.5q-91 -1 -175.5 17t-161.5 54q17 86 23.5 163.5t6.5 148.5q0 65 -4.5 126.5t-12.5 119.5h127.5h127.5v-6.5v-6.5q-2 -102 -7 -200.5t-28 -180.5q25 -23 59.5 -37.5 t77.5 -14.5h7.5t7.5 1q3 0 6.5 0.5t7.5 0.5q-5 72 -6.5 146t-0.5 149q0 37 1.5 74.5t3.5 74.5h252q-6 -156 -6.5 -312t6.5 -312v0zM564 665l-97 -31l-106 95l-102 -93l-98 29l127 168l146 -2l130 -166v0z" />
<glyph glyph-name="udieresis" unicode="&#xfc;" horiz-adv-x="714" d="M682 0h-231q-1 11 -2.5 21.5t-2.5 21.5q-2 10 -3 21t-3 22l-10.5 -14l-10.5 -14l-25 -33.5t-24 -29.5q-91 -1 -175.5 17t-161.5 54q17 86 23.5 163.5t6.5 148.5q0 65 -4.5 126.5t-12.5 119.5h127.5h127.5v-6.5v-6.5q-2 -102 -7 -200.5t-28 -180.5q25 -23 59.5 -37.5 t77.5 -14.5h7.5t7.5 1q3 0 6.5 0.5t7.5 0.5q-5 72 -6.5 146t-0.5 149q0 37 1.5 74.5t3.5 74.5h252q-6 -156 -6.5 -312t6.5 -312v0zM356 746l-112 -112l-113 112l113 113l112 -113v0zM597 746l-113 -112l-112 112l112 113l113 -113v0z" />
<glyph glyph-name="thorn" unicode="&#xfe;" horiz-adv-x="630" d="M584 404q9 -16 13.5 -35.5t4.5 -39.5q0 -12 -1.5 -23.5t-3.5 -23.5q-10 -46 -32 -89t-48 -72q-15 -17 -36 -28t-50 -13q-43 -2 -82 -1.5t-74 4.5q1 -10 1.5 -20.5t1.5 -21.5q0 -10 0.5 -20.5t1.5 -20.5h-250q2 18 3.5 35.5t2.5 34.5q10 140 6.5 279.5t-13.5 274.5h254 l-8 -63h10q64 0 105.5 -5t63.5 -20q43 -31 76.5 -63t53.5 -69v0zM390 316q4 7 5.5 13.5t0.5 12.5q0 11 -4.5 20t-12.5 16q-19 18 -40.5 31.5t-43.5 24.5q-5 2 -9.5 4t-8.5 4q-3 -57 -4 -113.5t-1 -112.5q39 11 68.5 36.5t49.5 63.5v0z" />
<glyph glyph-name="ydieresis" unicode="&#xff;" horiz-adv-x="659" d="M600 624l-245 -624h-256l91 208l-189 416h237l76 -188l71 188h215v0zM336 746l-112 -112l-113 112l113 113l112 -113v0zM577 746l-113 -112l-112 112l112 113l113 -113v0z" />
<glyph glyph-name="OE" unicode="&#x152;" horiz-adv-x="1140" d="M1088 520q-61 10 -123.5 11.5t-125.5 -3.5v-20.5v-20.5q-1 -11 -1 -21v-21q62 -4 123.5 -2.5t122.5 11.5l-42 -189h-204v-20.5t1 -21.5v-20.5v-21.5q62 -4 124 -2.5t122 10.5l-42 -189h-246.5h-247.5v3.5t1 2.5v3.5v2.5q-26 -6 -54.5 -9t-59.5 -3q-174 0 -279 96.5 t-105 258.5q0 161 105 257.5t279 96.5q31 0 59.5 -3t54.5 -9v3.5v2.5q-1 2 -1 3.5v2.5h249h248l42 -189v0zM550 362q0 47 -33.5 80.5t-80.5 33.5t-80.5 -33.5t-33.5 -80.5t33.5 -80.5t80.5 -33.5t80.5 33.5t33.5 80.5v0z" />
<glyph glyph-name="Ydieresis" unicode="&#x178;" horiz-adv-x="749" d="M682 709l-279 -709h-291l104 236l-215 473h269l87 -214l81 214h244v0zM396 836l-112 -112l-113 112l113 113l112 -113v0zM637 836l-113 -112l-112 112l112 113l113 -113v0z" />
<glyph glyph-name="circumflex" unicode="&#x2c6;" horiz-adv-x="529" d="M505 738l-78 -75l-4 6t-5 6q-12 17 -31.5 30.5t-43.5 13.5q-5 0 -10.5 -0.5t-10.5 -2.5l-27 -10t-24 -11l-43 -20.5t-39 -12.5q-6 -1 -11.5 -1h-10.5q-54 4 -87 29t-56 68l69 65l7.5 -5.5l7.5 -5.5q9 -7 18 -13t19 -11q6 -3 13 -4.5t13 -1.5h3.5h3.5q1 0 3 0.5t3 1.5 q59 23 100 40.5t72 17.5h6t6 -1q63 -9 90.5 -38.5t46.5 -64.5v0z" />
<glyph glyph-name="tilde" unicode="&#x2dc;" horiz-adv-x="521" d="M454 675l-97 -31l-106 95l-102 -93l-98 29l127 168l146 -2l130 -166v0z" />
<glyph glyph-name="endash" unicode="&#x2013;" horiz-adv-x="445" d="M453 274h-460v136h460v-136v0z" />
<glyph glyph-name="emdash" unicode="&#x2014;" horiz-adv-x="887" d="M903 274h-920v136h920v-136v0z" />
<glyph glyph-name="quoteleft" unicode="&#x2018;" horiz-adv-x="320" d="M307 832l-76 -271h-34.5h-72.5h-74.5h-33.5l12 77q8 54 57 91.5t106 62.5q32 13 62.5 23l53.5 17v0z" />
<glyph glyph-name="quoteright" unicode="&#x2019;" horiz-adv-x="320" d="M306 815l-12 -77q-8 -54 -57 -91.5t-106 -62.5q-32 -13 -62.5 -23l-53.5 -17l76 271h34.5h72.5h74.5h33.5v0z" />
<glyph glyph-name="quotesinglbase" unicode="&#x201a;" horiz-adv-x="320" d="M306 139l-12 -77q-8 -54 -57 -91t-106 -62q-32 -13 -62.5 -23l-53.5 -17l76 270h34.5h72.5h74.5h33.5v0z" />
<glyph glyph-name="quotedblleft" unicode="&#x201c;" horiz-adv-x="557" d="M307 822l-76 -271h-34.5h-72.5h-74.5h-33.5l12 77q8 54 57 91.5t106 62.5q32 13 62.5 23l53.5 17v0zM557 822l-76 -271h-34.5h-72.5h-74.5h-33.5l12 77q8 54 57 91.5t106 62.5q32 13 62.5 23l53.5 17v0z" />
<glyph glyph-name="quotedblright" unicode="&#x201d;" horiz-adv-x="557" d="M306 815l-12 -77q-8 -54 -57 -91.5t-106 -62.5q-32 -13 -62.5 -23l-53.5 -17l76 271h34.5h72.5h74.5h33.5v0zM556 815l-12 -77q-8 -54 -57 -91.5t-106 -62.5q-32 -13 -62.5 -23l-53.5 -17l76 271h34.5h72.5h74.5h33.5v0z" />
<glyph glyph-name="quotedblbase" unicode="&#x201e;" horiz-adv-x="543" d="M297 139l-12 -77q-8 -54 -57 -91t-106 -62q-32 -13 -62.5 -23l-53.5 -17l76 270h34.5h72.5h74.5h33.5v0zM537 139l-12 -77q-8 -54 -57 -91t-106 -62q-32 -13 -62.5 -23l-53.5 -17l76 270h34.5h72.5h74.5h33.5v0z" />
<glyph glyph-name="bullet" unicode="&#x2022;" horiz-adv-x="426" d="M398 376l-166 -169l-32 20l-71 44l-69 44t-33 21l168 189l203 -149v0z" />
<glyph glyph-name="ellipsis" unicode="&#x2026;" horiz-adv-x="916" d="M299 113l-133 -135q0 1 -25.5 16.5l-56.5 34.5l-55.5 35t-26.5 17l134 151l163 -119v0zM609 113l-133 -135q0 1 -25.5 16.5l-56.5 34.5l-55.5 35t-26.5 17l134 151l163 -119v0zM919 113l-133 -135q0 1 -25.5 16.5l-56.5 34.5l-55.5 35t-26.5 17l134 151l163 -119v0z" />
<glyph glyph-name="guilsinglleft" unicode="&#x2039;" horiz-adv-x="230" d="M215 456l-95 -106l93 -102l-29 -98l-168 127l2 146l166 130l31 -97v0z" />
<glyph glyph-name="guilsinglright" unicode="&#x203a;" horiz-adv-x="230" d="M214 277l-168 -127l-29 98l93 102l-95 106l31 97l166 -130l2 -146v0z" />
<glyph glyph-name="trademark" unicode="&#x2122;" horiz-adv-x="373" d="M149 727h-33v-240h-58v240h-32v21h123v-21v0zM347 487h-58v217l-52 -118l-55 121v-220h-19v260h60l32 -75l34 75h58v-260v0z" />
</font>
</defs>
</svg>
